G04 #@! TF.FileFunction,Soldermask,Top*
%FSLAX46Y46*%
G04 Gerber Fmt 4.6, Leading zero omitted, Abs format (unit mm)*
G04 Created by KiCad (PCBNEW 4.0.2+dfsg1-stable) date Fr 29 Apr 2016 12:30:28 CEST*
%MOMM*%
G01*
G04 APERTURE LIST*
%ADD10C,0.100000*%
%ADD11R,0.897560X0.897560*%
%ADD12R,0.900000X0.850000*%
%ADD13R,1.400000X0.350000*%
%ADD14R,0.350000X1.400000*%
%ADD15C,2.540000*%
%ADD16R,5.180000X1.878000*%
%ADD17R,1.400000X0.800000*%
%ADD18R,1.000000X0.600000*%
%ADD19R,0.850000X0.900000*%
%ADD20R,1.350000X1.100000*%
%ADD21R,1.601140X1.100760*%
%ADD22R,3.099740X2.098980*%
%ADD23R,2.500000X2.000000*%
%ADD24R,1.650000X0.700000*%
%ADD25R,1.600000X2.600000*%
%ADD26R,2.600000X1.600000*%
%ADD27R,1.350000X0.500000*%
%ADD28C,1.090600*%
%ADD29C,0.887400*%
G04 APERTURE END LIST*
D10*
D11*
X177450000Y-144200700D03*
X177450000Y-145699300D03*
D12*
X184450000Y-150100000D03*
X185950000Y-150100000D03*
D13*
X182000000Y-155150000D03*
X182000000Y-154650000D03*
X182000000Y-154150000D03*
X182000000Y-153650000D03*
X182000000Y-153150000D03*
X182000000Y-152650000D03*
X182000000Y-152150000D03*
X182000000Y-151650000D03*
X182000000Y-151150000D03*
X182000000Y-150650000D03*
X182000000Y-150150000D03*
X182000000Y-149650000D03*
D14*
X180400000Y-148050000D03*
X179900000Y-148050000D03*
X179400000Y-148050000D03*
X178900000Y-148050000D03*
X178400000Y-148050000D03*
X177900000Y-148050000D03*
X177400000Y-148050000D03*
X176900000Y-148050000D03*
X176400000Y-148050000D03*
X175900000Y-148050000D03*
X175400000Y-148050000D03*
X174900000Y-148050000D03*
D13*
X173300000Y-149650000D03*
X173300000Y-150150000D03*
X173300000Y-150650000D03*
X173300000Y-151150000D03*
X173300000Y-151650000D03*
X173300000Y-152150000D03*
X173300000Y-152650000D03*
X173300000Y-153150000D03*
X173300000Y-153650000D03*
X173300000Y-154150000D03*
X173300000Y-154650000D03*
X173300000Y-155150000D03*
D14*
X174900000Y-156750000D03*
X175400000Y-156750000D03*
X175900000Y-156750000D03*
X176400000Y-156750000D03*
X176900000Y-156750000D03*
X177400000Y-156750000D03*
X177900000Y-156750000D03*
X178400000Y-156750000D03*
X178900000Y-156750000D03*
X179400000Y-156750000D03*
X179900000Y-156750000D03*
X180400000Y-156750000D03*
D12*
X184450000Y-151650000D03*
X185950000Y-151650000D03*
D15*
X196800000Y-160400000D03*
D16*
X196633000Y-154994000D03*
X196633000Y-152200000D03*
X196633000Y-149406000D03*
X196633000Y-146612000D03*
X196633000Y-157788000D03*
D17*
X191950000Y-151750000D03*
X191950000Y-153650000D03*
D18*
X194300000Y-161200000D03*
X194300000Y-159700000D03*
D19*
X192700000Y-161050000D03*
X192700000Y-159550000D03*
D20*
X191950000Y-148250000D03*
X191950000Y-150250000D03*
D18*
X182250000Y-144100000D03*
X182250000Y-145600000D03*
D15*
X196300000Y-143700000D03*
X196800000Y-138000000D03*
D20*
X191950000Y-144600000D03*
X191950000Y-146600000D03*
D21*
X189201660Y-147701140D03*
X189201660Y-146200000D03*
X189201660Y-144698860D03*
D22*
X186250180Y-146200000D03*
D10*
G36*
X187674650Y-145149240D02*
X188523950Y-145649620D01*
X188523950Y-146750380D01*
X187674650Y-147250760D01*
X187674650Y-145149240D01*
X187674650Y-145149240D01*
G37*
D18*
X194300000Y-138800000D03*
X194300000Y-137300000D03*
D17*
X177900000Y-161050000D03*
X177900000Y-159150000D03*
D18*
X176100000Y-161150000D03*
X176100000Y-159650000D03*
X174500000Y-159650000D03*
X174500000Y-161150000D03*
D20*
X181400000Y-158900000D03*
X181400000Y-160900000D03*
D19*
X179650000Y-159500000D03*
X179650000Y-161000000D03*
D12*
X185950000Y-154750000D03*
X184450000Y-154750000D03*
D23*
X188850000Y-150400000D03*
X188850000Y-154500000D03*
D19*
X183150000Y-159500000D03*
X183150000Y-161000000D03*
D24*
X185400000Y-157095000D03*
X185400000Y-158365000D03*
X185400000Y-159635000D03*
X185400000Y-160905000D03*
X190800000Y-160905000D03*
X190800000Y-159635000D03*
X190800000Y-158365000D03*
X190800000Y-157095000D03*
D12*
X185950000Y-153200000D03*
X184450000Y-153200000D03*
X144350000Y-151650000D03*
X145850000Y-151650000D03*
X145850000Y-154750000D03*
X144350000Y-154750000D03*
X144350000Y-150100000D03*
X145850000Y-150100000D03*
X145850000Y-153200000D03*
X144350000Y-153200000D03*
D18*
X142150000Y-144100000D03*
X142150000Y-145600000D03*
D21*
X149101660Y-147701140D03*
X149101660Y-146200000D03*
X149101660Y-144698860D03*
D22*
X146150180Y-146200000D03*
D10*
G36*
X147574650Y-145149240D02*
X148423950Y-145649620D01*
X148423950Y-146750380D01*
X147574650Y-147250760D01*
X147574650Y-145149240D01*
X147574650Y-145149240D01*
G37*
D23*
X148750000Y-150400000D03*
X148750000Y-154500000D03*
D15*
X163800000Y-144200000D03*
D12*
X172000000Y-157250000D03*
X170500000Y-157250000D03*
D18*
X172900000Y-138750000D03*
X172900000Y-137250000D03*
D19*
X172700000Y-145750000D03*
X172700000Y-144250000D03*
D17*
X151850000Y-151750000D03*
X151850000Y-153650000D03*
D19*
X152600000Y-161050000D03*
X152600000Y-159550000D03*
D24*
X145300000Y-157095000D03*
X145300000Y-158365000D03*
X145300000Y-159635000D03*
X145300000Y-160905000D03*
X150700000Y-160905000D03*
X150700000Y-159635000D03*
X150700000Y-158365000D03*
X150700000Y-157095000D03*
D20*
X151850000Y-148250000D03*
X151850000Y-150250000D03*
X151850000Y-144600000D03*
X151850000Y-146600000D03*
D25*
X170050000Y-154400000D03*
X170050000Y-150000000D03*
D26*
X167850000Y-146950000D03*
X163650000Y-146950000D03*
X167850000Y-157250000D03*
D27*
X168175000Y-153500000D03*
X168175000Y-152850000D03*
X168175000Y-150900000D03*
X168175000Y-151550000D03*
X168175000Y-152200000D03*
D26*
X163650000Y-157250000D03*
D15*
X156700000Y-160400000D03*
D18*
X172900000Y-161150000D03*
X172900000Y-159650000D03*
X154200000Y-161200000D03*
X154200000Y-159700000D03*
D16*
X156533000Y-154994000D03*
X156533000Y-152200000D03*
X156533000Y-149406000D03*
X156533000Y-146612000D03*
X156533000Y-157788000D03*
D28*
X162960000Y-161216000D03*
X162960000Y-159184000D03*
D29*
X164230000Y-159565000D03*
X165500000Y-159565000D03*
X166770000Y-159565000D03*
X164230000Y-160835000D03*
X166770000Y-160835000D03*
X165500000Y-160835000D03*
D28*
X168040000Y-160200000D03*
D11*
X134150000Y-144200700D03*
X134150000Y-145699300D03*
X140550000Y-144200700D03*
X140550000Y-145699300D03*
D18*
X135800000Y-144100000D03*
X135800000Y-145600000D03*
D11*
X137350000Y-144200700D03*
X137350000Y-145699300D03*
D18*
X138950000Y-144100000D03*
X138950000Y-145600000D03*
D19*
X132600000Y-145750000D03*
X132600000Y-144250000D03*
X139550000Y-159500000D03*
X139550000Y-161000000D03*
D20*
X141300000Y-158900000D03*
X141300000Y-160900000D03*
D19*
X143050000Y-159500000D03*
X143050000Y-161000000D03*
D17*
X137800000Y-161050000D03*
X137800000Y-159150000D03*
D13*
X141900000Y-155150000D03*
X141900000Y-154650000D03*
X141900000Y-154150000D03*
X141900000Y-153650000D03*
X141900000Y-153150000D03*
X141900000Y-152650000D03*
X141900000Y-152150000D03*
X141900000Y-151650000D03*
X141900000Y-151150000D03*
X141900000Y-150650000D03*
X141900000Y-150150000D03*
X141900000Y-149650000D03*
D14*
X140300000Y-148050000D03*
X139800000Y-148050000D03*
X139300000Y-148050000D03*
X138800000Y-148050000D03*
X138300000Y-148050000D03*
X137800000Y-148050000D03*
X137300000Y-148050000D03*
X136800000Y-148050000D03*
X136300000Y-148050000D03*
X135800000Y-148050000D03*
X135300000Y-148050000D03*
X134800000Y-148050000D03*
D13*
X133200000Y-149650000D03*
X133200000Y-150150000D03*
X133200000Y-150650000D03*
X133200000Y-151150000D03*
X133200000Y-151650000D03*
X133200000Y-152150000D03*
X133200000Y-152650000D03*
X133200000Y-153150000D03*
X133200000Y-153650000D03*
X133200000Y-154150000D03*
X133200000Y-154650000D03*
X133200000Y-155150000D03*
D14*
X134800000Y-156750000D03*
X135300000Y-156750000D03*
X135800000Y-156750000D03*
X136300000Y-156750000D03*
X136800000Y-156750000D03*
X137300000Y-156750000D03*
X137800000Y-156750000D03*
X138300000Y-156750000D03*
X138800000Y-156750000D03*
X139300000Y-156750000D03*
X139800000Y-156750000D03*
X140300000Y-156750000D03*
D12*
X131900000Y-157250000D03*
X130400000Y-157250000D03*
D18*
X132800000Y-161150000D03*
X132800000Y-159650000D03*
X136000000Y-161150000D03*
X136000000Y-159650000D03*
X134400000Y-159650000D03*
X134400000Y-161150000D03*
D19*
X139550000Y-137100000D03*
X139550000Y-138600000D03*
D20*
X141300000Y-136500000D03*
X141300000Y-138500000D03*
D17*
X137800000Y-138650000D03*
X137800000Y-136750000D03*
D19*
X143050000Y-137100000D03*
X143050000Y-138600000D03*
D20*
X151850000Y-99800000D03*
X151850000Y-101800000D03*
X151850000Y-103450000D03*
X151850000Y-105450000D03*
D21*
X149101660Y-102901140D03*
X149101660Y-101400000D03*
X149101660Y-99898860D03*
D22*
X146150180Y-101400000D03*
D10*
G36*
X147574650Y-100349240D02*
X148423950Y-100849620D01*
X148423950Y-101950380D01*
X147574650Y-102450760D01*
X147574650Y-100349240D01*
X147574650Y-100349240D01*
G37*
D17*
X151850000Y-106950000D03*
X151850000Y-108850000D03*
D13*
X141900000Y-110350000D03*
X141900000Y-109850000D03*
X141900000Y-109350000D03*
X141900000Y-108850000D03*
X141900000Y-108350000D03*
X141900000Y-107850000D03*
X141900000Y-107350000D03*
X141900000Y-106850000D03*
X141900000Y-106350000D03*
X141900000Y-105850000D03*
X141900000Y-105350000D03*
X141900000Y-104850000D03*
D14*
X140300000Y-103250000D03*
X139800000Y-103250000D03*
X139300000Y-103250000D03*
X138800000Y-103250000D03*
X138300000Y-103250000D03*
X137800000Y-103250000D03*
X137300000Y-103250000D03*
X136800000Y-103250000D03*
X136300000Y-103250000D03*
X135800000Y-103250000D03*
X135300000Y-103250000D03*
X134800000Y-103250000D03*
D13*
X133200000Y-104850000D03*
X133200000Y-105350000D03*
X133200000Y-105850000D03*
X133200000Y-106350000D03*
X133200000Y-106850000D03*
X133200000Y-107350000D03*
X133200000Y-107850000D03*
X133200000Y-108350000D03*
X133200000Y-108850000D03*
X133200000Y-109350000D03*
X133200000Y-109850000D03*
X133200000Y-110350000D03*
D14*
X134800000Y-111950000D03*
X135300000Y-111950000D03*
X135800000Y-111950000D03*
X136300000Y-111950000D03*
X136800000Y-111950000D03*
X137300000Y-111950000D03*
X137800000Y-111950000D03*
X138300000Y-111950000D03*
X138800000Y-111950000D03*
X139300000Y-111950000D03*
X139800000Y-111950000D03*
X140300000Y-111950000D03*
D18*
X138950000Y-99300000D03*
X138950000Y-100800000D03*
X142150000Y-99300000D03*
X142150000Y-100800000D03*
D11*
X140550000Y-99400700D03*
X140550000Y-100899300D03*
D18*
X135800000Y-99300000D03*
X135800000Y-100800000D03*
D11*
X137350000Y-99400700D03*
X137350000Y-100899300D03*
D19*
X132600000Y-100950000D03*
X132600000Y-99450000D03*
D11*
X134150000Y-99400700D03*
X134150000Y-100899300D03*
D12*
X145850000Y-109950000D03*
X144350000Y-109950000D03*
X144350000Y-105300000D03*
X145850000Y-105300000D03*
X145850000Y-108400000D03*
X144350000Y-108400000D03*
X144350000Y-106850000D03*
X145850000Y-106850000D03*
D23*
X148750000Y-105600000D03*
X148750000Y-109700000D03*
D24*
X145300000Y-112295000D03*
X145300000Y-113565000D03*
X145300000Y-114835000D03*
X145300000Y-116105000D03*
X150700000Y-116105000D03*
X150700000Y-114835000D03*
X150700000Y-113565000D03*
X150700000Y-112295000D03*
D19*
X143050000Y-114700000D03*
X143050000Y-116200000D03*
D17*
X137800000Y-116250000D03*
X137800000Y-114350000D03*
D20*
X141300000Y-114100000D03*
X141300000Y-116100000D03*
D19*
X139550000Y-114700000D03*
X139550000Y-116200000D03*
D18*
X132800000Y-116350000D03*
X132800000Y-114850000D03*
D12*
X131900000Y-112450000D03*
X130400000Y-112450000D03*
D18*
X134400000Y-114850000D03*
X134400000Y-116350000D03*
X136000000Y-116350000D03*
X136000000Y-114850000D03*
D11*
X180650000Y-144200700D03*
X180650000Y-145699300D03*
D18*
X179050000Y-144100000D03*
X179050000Y-145600000D03*
X175900000Y-144100000D03*
X175900000Y-145600000D03*
D11*
X174250000Y-144200700D03*
X174250000Y-145699300D03*
D19*
X183150000Y-137100000D03*
X183150000Y-138600000D03*
X179650000Y-137100000D03*
X179650000Y-138600000D03*
D18*
X176100000Y-138750000D03*
X176100000Y-137250000D03*
X174500000Y-137250000D03*
X174500000Y-138750000D03*
D17*
X177900000Y-138650000D03*
X177900000Y-136750000D03*
D12*
X185950000Y-132350000D03*
X184450000Y-132350000D03*
X185950000Y-130800000D03*
X184450000Y-130800000D03*
X184450000Y-129250000D03*
X185950000Y-129250000D03*
X184450000Y-127700000D03*
X185950000Y-127700000D03*
D13*
X182000000Y-132750000D03*
X182000000Y-132250000D03*
X182000000Y-131750000D03*
X182000000Y-131250000D03*
X182000000Y-130750000D03*
X182000000Y-130250000D03*
X182000000Y-129750000D03*
X182000000Y-129250000D03*
X182000000Y-128750000D03*
X182000000Y-128250000D03*
X182000000Y-127750000D03*
X182000000Y-127250000D03*
D14*
X180400000Y-125650000D03*
X179900000Y-125650000D03*
X179400000Y-125650000D03*
X178900000Y-125650000D03*
X178400000Y-125650000D03*
X177900000Y-125650000D03*
X177400000Y-125650000D03*
X176900000Y-125650000D03*
X176400000Y-125650000D03*
X175900000Y-125650000D03*
X175400000Y-125650000D03*
X174900000Y-125650000D03*
D13*
X173300000Y-127250000D03*
X173300000Y-127750000D03*
X173300000Y-128250000D03*
X173300000Y-128750000D03*
X173300000Y-129250000D03*
X173300000Y-129750000D03*
X173300000Y-130250000D03*
X173300000Y-130750000D03*
X173300000Y-131250000D03*
X173300000Y-131750000D03*
X173300000Y-132250000D03*
X173300000Y-132750000D03*
D14*
X174900000Y-134350000D03*
X175400000Y-134350000D03*
X175900000Y-134350000D03*
X176400000Y-134350000D03*
X176900000Y-134350000D03*
X177400000Y-134350000D03*
X177900000Y-134350000D03*
X178400000Y-134350000D03*
X178900000Y-134350000D03*
X179400000Y-134350000D03*
X179900000Y-134350000D03*
X180400000Y-134350000D03*
D16*
X196633000Y-132594000D03*
X196633000Y-129800000D03*
X196633000Y-127006000D03*
X196633000Y-124212000D03*
X196633000Y-135388000D03*
D20*
X181400000Y-136500000D03*
X181400000Y-138500000D03*
D24*
X185400000Y-134695000D03*
X185400000Y-135965000D03*
X185400000Y-137235000D03*
X185400000Y-138505000D03*
X190800000Y-138505000D03*
X190800000Y-137235000D03*
X190800000Y-135965000D03*
X190800000Y-134695000D03*
D23*
X188850000Y-128000000D03*
X188850000Y-132100000D03*
D17*
X191950000Y-129350000D03*
X191950000Y-131250000D03*
D20*
X191950000Y-125850000D03*
X191950000Y-127850000D03*
D19*
X192700000Y-138650000D03*
X192700000Y-137150000D03*
D20*
X151850000Y-125850000D03*
X151850000Y-127850000D03*
X151850000Y-122200000D03*
X151850000Y-124200000D03*
D21*
X149101660Y-125301140D03*
X149101660Y-123800000D03*
X149101660Y-122298860D03*
D22*
X146150180Y-123800000D03*
D10*
G36*
X147574650Y-122749240D02*
X148423950Y-123249620D01*
X148423950Y-124350380D01*
X147574650Y-124850760D01*
X147574650Y-122749240D01*
X147574650Y-122749240D01*
G37*
D23*
X148750000Y-128000000D03*
X148750000Y-132100000D03*
D18*
X135800000Y-121700000D03*
X135800000Y-123200000D03*
D19*
X132600000Y-123350000D03*
X132600000Y-121850000D03*
D11*
X134150000Y-121800700D03*
X134150000Y-123299300D03*
X137350000Y-121800700D03*
X137350000Y-123299300D03*
D24*
X145300000Y-134695000D03*
X145300000Y-135965000D03*
X145300000Y-137235000D03*
X145300000Y-138505000D03*
X150700000Y-138505000D03*
X150700000Y-137235000D03*
X150700000Y-135965000D03*
X150700000Y-134695000D03*
D15*
X156700000Y-138000000D03*
D18*
X154200000Y-138800000D03*
X154200000Y-137300000D03*
D19*
X152600000Y-138650000D03*
X152600000Y-137150000D03*
D17*
X151850000Y-129350000D03*
X151850000Y-131250000D03*
D15*
X156200000Y-143700000D03*
D12*
X172000000Y-134850000D03*
X170500000Y-134850000D03*
D28*
X162960000Y-138816000D03*
X162960000Y-136784000D03*
D29*
X164230000Y-137165000D03*
X165500000Y-137165000D03*
X166770000Y-137165000D03*
X164230000Y-138435000D03*
X166770000Y-138435000D03*
X165500000Y-138435000D03*
D28*
X168040000Y-137800000D03*
D19*
X152600000Y-116250000D03*
X152600000Y-114750000D03*
D25*
X170050000Y-132000000D03*
X170050000Y-127600000D03*
D26*
X167850000Y-124550000D03*
X163650000Y-124550000D03*
X167850000Y-134850000D03*
D27*
X168175000Y-131100000D03*
X168175000Y-130450000D03*
X168175000Y-128500000D03*
X168175000Y-129150000D03*
X168175000Y-129800000D03*
D26*
X163650000Y-134850000D03*
D16*
X156533000Y-132594000D03*
X156533000Y-129800000D03*
X156533000Y-127006000D03*
X156533000Y-124212000D03*
X156533000Y-135388000D03*
D28*
X162960000Y-116416000D03*
X162960000Y-114384000D03*
D29*
X164230000Y-114765000D03*
X165500000Y-114765000D03*
X166770000Y-114765000D03*
X164230000Y-116035000D03*
X166770000Y-116035000D03*
X165500000Y-116035000D03*
D28*
X168040000Y-115400000D03*
D12*
X172000000Y-112450000D03*
X170500000Y-112450000D03*
D18*
X142150000Y-121700000D03*
X142150000Y-123200000D03*
D13*
X141900000Y-132750000D03*
X141900000Y-132250000D03*
X141900000Y-131750000D03*
X141900000Y-131250000D03*
X141900000Y-130750000D03*
X141900000Y-130250000D03*
X141900000Y-129750000D03*
X141900000Y-129250000D03*
X141900000Y-128750000D03*
X141900000Y-128250000D03*
X141900000Y-127750000D03*
X141900000Y-127250000D03*
D14*
X140300000Y-125650000D03*
X139800000Y-125650000D03*
X139300000Y-125650000D03*
X138800000Y-125650000D03*
X138300000Y-125650000D03*
X137800000Y-125650000D03*
X137300000Y-125650000D03*
X136800000Y-125650000D03*
X136300000Y-125650000D03*
X135800000Y-125650000D03*
X135300000Y-125650000D03*
X134800000Y-125650000D03*
D13*
X133200000Y-127250000D03*
X133200000Y-127750000D03*
X133200000Y-128250000D03*
X133200000Y-128750000D03*
X133200000Y-129250000D03*
X133200000Y-129750000D03*
X133200000Y-130250000D03*
X133200000Y-130750000D03*
X133200000Y-131250000D03*
X133200000Y-131750000D03*
X133200000Y-132250000D03*
X133200000Y-132750000D03*
D14*
X134800000Y-134350000D03*
X135300000Y-134350000D03*
X135800000Y-134350000D03*
X136300000Y-134350000D03*
X136800000Y-134350000D03*
X137300000Y-134350000D03*
X137800000Y-134350000D03*
X138300000Y-134350000D03*
X138800000Y-134350000D03*
X139300000Y-134350000D03*
X139800000Y-134350000D03*
X140300000Y-134350000D03*
D11*
X140550000Y-121800700D03*
X140550000Y-123299300D03*
D18*
X138950000Y-121700000D03*
X138950000Y-123200000D03*
D12*
X144350000Y-127700000D03*
X145850000Y-127700000D03*
X145850000Y-130800000D03*
X144350000Y-130800000D03*
X144350000Y-129250000D03*
X145850000Y-129250000D03*
X145850000Y-132350000D03*
X144350000Y-132350000D03*
X131900000Y-134850000D03*
X130400000Y-134850000D03*
D18*
X134400000Y-137250000D03*
X134400000Y-138750000D03*
X136000000Y-138750000D03*
X136000000Y-137250000D03*
X132800000Y-138750000D03*
X132800000Y-137250000D03*
D15*
X196300000Y-121300000D03*
D16*
X196633000Y-110194000D03*
X196633000Y-107400000D03*
X196633000Y-104606000D03*
X196633000Y-101812000D03*
X196633000Y-112988000D03*
D18*
X194300000Y-116400000D03*
X194300000Y-114900000D03*
D17*
X191950000Y-106950000D03*
X191950000Y-108850000D03*
D15*
X196800000Y-115600000D03*
X196300000Y-98900000D03*
D20*
X191950000Y-99800000D03*
X191950000Y-101800000D03*
D21*
X189201660Y-102901140D03*
X189201660Y-101400000D03*
X189201660Y-99898860D03*
D22*
X186250180Y-101400000D03*
D10*
G36*
X187674650Y-100349240D02*
X188523950Y-100849620D01*
X188523950Y-101950380D01*
X187674650Y-102450760D01*
X187674650Y-100349240D01*
X187674650Y-100349240D01*
G37*
D20*
X191950000Y-103450000D03*
X191950000Y-105450000D03*
D12*
X185950000Y-109950000D03*
X184450000Y-109950000D03*
X185950000Y-108400000D03*
X184450000Y-108400000D03*
X184450000Y-106850000D03*
X185950000Y-106850000D03*
X184450000Y-105300000D03*
X185950000Y-105300000D03*
D23*
X188850000Y-105600000D03*
X188850000Y-109700000D03*
D20*
X191950000Y-122200000D03*
X191950000Y-124200000D03*
D24*
X185400000Y-112295000D03*
X185400000Y-113565000D03*
X185400000Y-114835000D03*
X185400000Y-116105000D03*
X190800000Y-116105000D03*
X190800000Y-114835000D03*
X190800000Y-113565000D03*
X190800000Y-112295000D03*
D21*
X189201660Y-125301140D03*
X189201660Y-123800000D03*
X189201660Y-122298860D03*
D22*
X186250180Y-123800000D03*
D10*
G36*
X187674650Y-122749240D02*
X188523950Y-123249620D01*
X188523950Y-124350380D01*
X187674650Y-124850760D01*
X187674650Y-122749240D01*
X187674650Y-122749240D01*
G37*
D19*
X192700000Y-116250000D03*
X192700000Y-114750000D03*
D18*
X182250000Y-121700000D03*
X182250000Y-123200000D03*
X179050000Y-121700000D03*
X179050000Y-123200000D03*
D11*
X174250000Y-121800700D03*
X174250000Y-123299300D03*
D19*
X172700000Y-123350000D03*
X172700000Y-121850000D03*
D18*
X175900000Y-121700000D03*
X175900000Y-123200000D03*
D11*
X177450000Y-121800700D03*
X177450000Y-123299300D03*
X180650000Y-121800700D03*
X180650000Y-123299300D03*
D18*
X182250000Y-99300000D03*
X182250000Y-100800000D03*
D11*
X180650000Y-99400700D03*
X180650000Y-100899300D03*
D20*
X181400000Y-114100000D03*
X181400000Y-116100000D03*
D13*
X182000000Y-110350000D03*
X182000000Y-109850000D03*
X182000000Y-109350000D03*
X182000000Y-108850000D03*
X182000000Y-108350000D03*
X182000000Y-107850000D03*
X182000000Y-107350000D03*
X182000000Y-106850000D03*
X182000000Y-106350000D03*
X182000000Y-105850000D03*
X182000000Y-105350000D03*
X182000000Y-104850000D03*
D14*
X180400000Y-103250000D03*
X179900000Y-103250000D03*
X179400000Y-103250000D03*
X178900000Y-103250000D03*
X178400000Y-103250000D03*
X177900000Y-103250000D03*
X177400000Y-103250000D03*
X176900000Y-103250000D03*
X176400000Y-103250000D03*
X175900000Y-103250000D03*
X175400000Y-103250000D03*
X174900000Y-103250000D03*
D13*
X173300000Y-104850000D03*
X173300000Y-105350000D03*
X173300000Y-105850000D03*
X173300000Y-106350000D03*
X173300000Y-106850000D03*
X173300000Y-107350000D03*
X173300000Y-107850000D03*
X173300000Y-108350000D03*
X173300000Y-108850000D03*
X173300000Y-109350000D03*
X173300000Y-109850000D03*
X173300000Y-110350000D03*
D14*
X174900000Y-111950000D03*
X175400000Y-111950000D03*
X175900000Y-111950000D03*
X176400000Y-111950000D03*
X176900000Y-111950000D03*
X177400000Y-111950000D03*
X177900000Y-111950000D03*
X178400000Y-111950000D03*
X178900000Y-111950000D03*
X179400000Y-111950000D03*
X179900000Y-111950000D03*
X180400000Y-111950000D03*
D17*
X177900000Y-116250000D03*
X177900000Y-114350000D03*
D18*
X179050000Y-99300000D03*
X179050000Y-100800000D03*
X175900000Y-99300000D03*
X175900000Y-100800000D03*
D19*
X172700000Y-100950000D03*
X172700000Y-99450000D03*
D11*
X177450000Y-99400700D03*
X177450000Y-100899300D03*
X174250000Y-99400700D03*
X174250000Y-100899300D03*
D25*
X170050000Y-109600000D03*
X170050000Y-105200000D03*
D26*
X167850000Y-102150000D03*
X163650000Y-102150000D03*
X167850000Y-112450000D03*
D27*
X168175000Y-108700000D03*
X168175000Y-108050000D03*
X168175000Y-106100000D03*
X168175000Y-106750000D03*
X168175000Y-107400000D03*
D26*
X163650000Y-112450000D03*
D15*
X163800000Y-99400000D03*
D16*
X156533000Y-110194000D03*
X156533000Y-107400000D03*
X156533000Y-104606000D03*
X156533000Y-101812000D03*
X156533000Y-112988000D03*
D15*
X156200000Y-98900000D03*
D18*
X174500000Y-114850000D03*
X174500000Y-116350000D03*
X176100000Y-116350000D03*
X176100000Y-114850000D03*
X172900000Y-116350000D03*
X172900000Y-114850000D03*
D19*
X179650000Y-114700000D03*
X179650000Y-116200000D03*
X183150000Y-114700000D03*
X183150000Y-116200000D03*
D15*
X156200000Y-121300000D03*
X163800000Y-121800000D03*
D18*
X154200000Y-116400000D03*
X154200000Y-114900000D03*
D15*
X156700000Y-115600000D03*
D19*
X72400000Y-161050000D03*
X72400000Y-159550000D03*
D17*
X71650000Y-151750000D03*
X71650000Y-153650000D03*
D24*
X65100000Y-157095000D03*
X65100000Y-158365000D03*
X65100000Y-159635000D03*
X65100000Y-160905000D03*
X70500000Y-160905000D03*
X70500000Y-159635000D03*
X70500000Y-158365000D03*
X70500000Y-157095000D03*
D18*
X74000000Y-161200000D03*
X74000000Y-159700000D03*
D20*
X71650000Y-148250000D03*
X71650000Y-150250000D03*
D12*
X65650000Y-153200000D03*
X64150000Y-153200000D03*
X65650000Y-154750000D03*
X64150000Y-154750000D03*
D23*
X68550000Y-150400000D03*
X68550000Y-154500000D03*
D12*
X64150000Y-150100000D03*
X65650000Y-150100000D03*
X64150000Y-151650000D03*
X65650000Y-151650000D03*
D11*
X53950000Y-144200700D03*
X53950000Y-145699300D03*
D12*
X51700000Y-157250000D03*
X50200000Y-157250000D03*
D19*
X52400000Y-145750000D03*
X52400000Y-144250000D03*
D28*
X42660000Y-161216000D03*
X42660000Y-159184000D03*
D29*
X43930000Y-159565000D03*
X45200000Y-159565000D03*
X46470000Y-159565000D03*
X43930000Y-160835000D03*
X46470000Y-160835000D03*
X45200000Y-160835000D03*
D28*
X47740000Y-160200000D03*
D25*
X49750000Y-154400000D03*
X49750000Y-150000000D03*
D26*
X47550000Y-146950000D03*
X43350000Y-146950000D03*
X47550000Y-157250000D03*
D27*
X47875000Y-153500000D03*
X47875000Y-152850000D03*
X47875000Y-150900000D03*
X47875000Y-151550000D03*
X47875000Y-152200000D03*
D26*
X43350000Y-157250000D03*
D18*
X52600000Y-161150000D03*
X52600000Y-159650000D03*
D19*
X59350000Y-159500000D03*
X59350000Y-161000000D03*
D18*
X55800000Y-161150000D03*
X55800000Y-159650000D03*
D19*
X62850000Y-159500000D03*
X62850000Y-161000000D03*
D20*
X61100000Y-158900000D03*
X61100000Y-160900000D03*
D17*
X57600000Y-161050000D03*
X57600000Y-159150000D03*
D13*
X61700000Y-155150000D03*
X61700000Y-154650000D03*
X61700000Y-154150000D03*
X61700000Y-153650000D03*
X61700000Y-153150000D03*
X61700000Y-152650000D03*
X61700000Y-152150000D03*
X61700000Y-151650000D03*
X61700000Y-151150000D03*
X61700000Y-150650000D03*
X61700000Y-150150000D03*
X61700000Y-149650000D03*
D14*
X60100000Y-148050000D03*
X59600000Y-148050000D03*
X59100000Y-148050000D03*
X58600000Y-148050000D03*
X58100000Y-148050000D03*
X57600000Y-148050000D03*
X57100000Y-148050000D03*
X56600000Y-148050000D03*
X56100000Y-148050000D03*
X55600000Y-148050000D03*
X55100000Y-148050000D03*
X54600000Y-148050000D03*
D13*
X53000000Y-149650000D03*
X53000000Y-150150000D03*
X53000000Y-150650000D03*
X53000000Y-151150000D03*
X53000000Y-151650000D03*
X53000000Y-152150000D03*
X53000000Y-152650000D03*
X53000000Y-153150000D03*
X53000000Y-153650000D03*
X53000000Y-154150000D03*
X53000000Y-154650000D03*
X53000000Y-155150000D03*
D14*
X54600000Y-156750000D03*
X55100000Y-156750000D03*
X55600000Y-156750000D03*
X56100000Y-156750000D03*
X56600000Y-156750000D03*
X57100000Y-156750000D03*
X57600000Y-156750000D03*
X58100000Y-156750000D03*
X58600000Y-156750000D03*
X59100000Y-156750000D03*
X59600000Y-156750000D03*
X60100000Y-156750000D03*
D18*
X54200000Y-159650000D03*
X54200000Y-161150000D03*
D11*
X60350000Y-144200700D03*
X60350000Y-145699300D03*
X57150000Y-144200700D03*
X57150000Y-145699300D03*
D20*
X61100000Y-136500000D03*
X61100000Y-138500000D03*
D19*
X62850000Y-137100000D03*
X62850000Y-138600000D03*
D20*
X71650000Y-144600000D03*
X71650000Y-146600000D03*
D18*
X74000000Y-138800000D03*
X74000000Y-137300000D03*
D19*
X72400000Y-138650000D03*
X72400000Y-137150000D03*
D21*
X68901660Y-147701140D03*
X68901660Y-146200000D03*
X68901660Y-144698860D03*
D22*
X65950180Y-146200000D03*
D10*
G36*
X67374650Y-145149240D02*
X68223950Y-145649620D01*
X68223950Y-146750380D01*
X67374650Y-147250760D01*
X67374650Y-145149240D01*
X67374650Y-145149240D01*
G37*
D24*
X65100000Y-134695000D03*
X65100000Y-135965000D03*
X65100000Y-137235000D03*
X65100000Y-138505000D03*
X70500000Y-138505000D03*
X70500000Y-137235000D03*
X70500000Y-135965000D03*
X70500000Y-134695000D03*
D18*
X95700000Y-121700000D03*
X95700000Y-123200000D03*
D11*
X94050000Y-121800700D03*
X94050000Y-123299300D03*
D18*
X98850000Y-121700000D03*
X98850000Y-123200000D03*
X102050000Y-121700000D03*
X102050000Y-123200000D03*
D11*
X100450000Y-121800700D03*
X100450000Y-123299300D03*
X97250000Y-121800700D03*
X97250000Y-123299300D03*
D18*
X94300000Y-137250000D03*
X94300000Y-138750000D03*
D17*
X97700000Y-138650000D03*
X97700000Y-136750000D03*
D19*
X102950000Y-137100000D03*
X102950000Y-138600000D03*
D18*
X95900000Y-138750000D03*
X95900000Y-137250000D03*
D20*
X101200000Y-136500000D03*
X101200000Y-138500000D03*
D19*
X99450000Y-137100000D03*
X99450000Y-138600000D03*
D15*
X76000000Y-143700000D03*
X76500000Y-138000000D03*
D25*
X89850000Y-132000000D03*
X89850000Y-127600000D03*
D26*
X87650000Y-124550000D03*
X83450000Y-124550000D03*
X87650000Y-134850000D03*
D27*
X87975000Y-131100000D03*
X87975000Y-130450000D03*
X87975000Y-128500000D03*
X87975000Y-129150000D03*
X87975000Y-129800000D03*
D26*
X83450000Y-134850000D03*
D28*
X82760000Y-138816000D03*
X82760000Y-136784000D03*
D29*
X84030000Y-137165000D03*
X85300000Y-137165000D03*
X86570000Y-137165000D03*
X84030000Y-138435000D03*
X86570000Y-138435000D03*
X85300000Y-138435000D03*
D28*
X87840000Y-137800000D03*
D16*
X76333000Y-132594000D03*
X76333000Y-129800000D03*
X76333000Y-127006000D03*
X76333000Y-124212000D03*
X76333000Y-135388000D03*
D18*
X92700000Y-138750000D03*
X92700000Y-137250000D03*
D19*
X92500000Y-123350000D03*
X92500000Y-121850000D03*
D12*
X91800000Y-134850000D03*
X90300000Y-134850000D03*
D13*
X101800000Y-132750000D03*
X101800000Y-132250000D03*
X101800000Y-131750000D03*
X101800000Y-131250000D03*
X101800000Y-130750000D03*
X101800000Y-130250000D03*
X101800000Y-129750000D03*
X101800000Y-129250000D03*
X101800000Y-128750000D03*
X101800000Y-128250000D03*
X101800000Y-127750000D03*
X101800000Y-127250000D03*
D14*
X100200000Y-125650000D03*
X99700000Y-125650000D03*
X99200000Y-125650000D03*
X98700000Y-125650000D03*
X98200000Y-125650000D03*
X97700000Y-125650000D03*
X97200000Y-125650000D03*
X96700000Y-125650000D03*
X96200000Y-125650000D03*
X95700000Y-125650000D03*
X95200000Y-125650000D03*
X94700000Y-125650000D03*
D13*
X93100000Y-127250000D03*
X93100000Y-127750000D03*
X93100000Y-128250000D03*
X93100000Y-128750000D03*
X93100000Y-129250000D03*
X93100000Y-129750000D03*
X93100000Y-130250000D03*
X93100000Y-130750000D03*
X93100000Y-131250000D03*
X93100000Y-131750000D03*
X93100000Y-132250000D03*
X93100000Y-132750000D03*
D14*
X94700000Y-134350000D03*
X95200000Y-134350000D03*
X95700000Y-134350000D03*
X96200000Y-134350000D03*
X96700000Y-134350000D03*
X97200000Y-134350000D03*
X97700000Y-134350000D03*
X98200000Y-134350000D03*
X98700000Y-134350000D03*
X99200000Y-134350000D03*
X99700000Y-134350000D03*
X100200000Y-134350000D03*
D12*
X104250000Y-127700000D03*
X105750000Y-127700000D03*
X104250000Y-129250000D03*
X105750000Y-129250000D03*
X105750000Y-130800000D03*
X104250000Y-130800000D03*
X105750000Y-132350000D03*
X104250000Y-132350000D03*
D19*
X102950000Y-114700000D03*
X102950000Y-116200000D03*
X99450000Y-114700000D03*
X99450000Y-116200000D03*
D18*
X95900000Y-116350000D03*
X95900000Y-114850000D03*
X94300000Y-114850000D03*
X94300000Y-116350000D03*
D17*
X97700000Y-116250000D03*
X97700000Y-114350000D03*
D18*
X92700000Y-116350000D03*
X92700000Y-114850000D03*
D13*
X61700000Y-110350000D03*
X61700000Y-109850000D03*
X61700000Y-109350000D03*
X61700000Y-108850000D03*
X61700000Y-108350000D03*
X61700000Y-107850000D03*
X61700000Y-107350000D03*
X61700000Y-106850000D03*
X61700000Y-106350000D03*
X61700000Y-105850000D03*
X61700000Y-105350000D03*
X61700000Y-104850000D03*
D14*
X60100000Y-103250000D03*
X59600000Y-103250000D03*
X59100000Y-103250000D03*
X58600000Y-103250000D03*
X58100000Y-103250000D03*
X57600000Y-103250000D03*
X57100000Y-103250000D03*
X56600000Y-103250000D03*
X56100000Y-103250000D03*
X55600000Y-103250000D03*
X55100000Y-103250000D03*
X54600000Y-103250000D03*
D13*
X53000000Y-104850000D03*
X53000000Y-105350000D03*
X53000000Y-105850000D03*
X53000000Y-106350000D03*
X53000000Y-106850000D03*
X53000000Y-107350000D03*
X53000000Y-107850000D03*
X53000000Y-108350000D03*
X53000000Y-108850000D03*
X53000000Y-109350000D03*
X53000000Y-109850000D03*
X53000000Y-110350000D03*
D14*
X54600000Y-111950000D03*
X55100000Y-111950000D03*
X55600000Y-111950000D03*
X56100000Y-111950000D03*
X56600000Y-111950000D03*
X57100000Y-111950000D03*
X57600000Y-111950000D03*
X58100000Y-111950000D03*
X58600000Y-111950000D03*
X59100000Y-111950000D03*
X59600000Y-111950000D03*
X60100000Y-111950000D03*
D11*
X53950000Y-99400700D03*
X53950000Y-100899300D03*
D19*
X52400000Y-100950000D03*
X52400000Y-99450000D03*
D18*
X55600000Y-99300000D03*
X55600000Y-100800000D03*
D19*
X52400000Y-123350000D03*
X52400000Y-121850000D03*
D15*
X43500000Y-121800000D03*
D25*
X49750000Y-109600000D03*
X49750000Y-105200000D03*
D26*
X47550000Y-102150000D03*
X43350000Y-102150000D03*
X47550000Y-112450000D03*
D27*
X47875000Y-108700000D03*
X47875000Y-108050000D03*
X47875000Y-106100000D03*
X47875000Y-106750000D03*
X47875000Y-107400000D03*
D26*
X43350000Y-112450000D03*
D28*
X42660000Y-116416000D03*
X42660000Y-114384000D03*
D29*
X43930000Y-114765000D03*
X45200000Y-114765000D03*
X46470000Y-114765000D03*
X43930000Y-116035000D03*
X46470000Y-116035000D03*
X45200000Y-116035000D03*
D28*
X47740000Y-115400000D03*
D12*
X51700000Y-112450000D03*
X50200000Y-112450000D03*
D15*
X43500000Y-99400000D03*
D11*
X53950000Y-121800700D03*
X53950000Y-123299300D03*
D18*
X61950000Y-121700000D03*
X61950000Y-123200000D03*
X55600000Y-121700000D03*
X55600000Y-123200000D03*
X58750000Y-121700000D03*
X58750000Y-123200000D03*
D11*
X57150000Y-121800700D03*
X57150000Y-123299300D03*
X60350000Y-121800700D03*
X60350000Y-123299300D03*
D20*
X61100000Y-114100000D03*
X61100000Y-116100000D03*
D19*
X59350000Y-114700000D03*
X59350000Y-116200000D03*
D17*
X57600000Y-116250000D03*
X57600000Y-114350000D03*
D18*
X52600000Y-116350000D03*
X52600000Y-114850000D03*
X55800000Y-116350000D03*
X55800000Y-114850000D03*
X54200000Y-114850000D03*
X54200000Y-116350000D03*
X102050000Y-99300000D03*
X102050000Y-100800000D03*
D11*
X100450000Y-99400700D03*
X100450000Y-100899300D03*
D20*
X101200000Y-114100000D03*
X101200000Y-116100000D03*
D13*
X101800000Y-110350000D03*
X101800000Y-109850000D03*
X101800000Y-109350000D03*
X101800000Y-108850000D03*
X101800000Y-108350000D03*
X101800000Y-107850000D03*
X101800000Y-107350000D03*
X101800000Y-106850000D03*
X101800000Y-106350000D03*
X101800000Y-105850000D03*
X101800000Y-105350000D03*
X101800000Y-104850000D03*
D14*
X100200000Y-103250000D03*
X99700000Y-103250000D03*
X99200000Y-103250000D03*
X98700000Y-103250000D03*
X98200000Y-103250000D03*
X97700000Y-103250000D03*
X97200000Y-103250000D03*
X96700000Y-103250000D03*
X96200000Y-103250000D03*
X95700000Y-103250000D03*
X95200000Y-103250000D03*
X94700000Y-103250000D03*
D13*
X93100000Y-104850000D03*
X93100000Y-105350000D03*
X93100000Y-105850000D03*
X93100000Y-106350000D03*
X93100000Y-106850000D03*
X93100000Y-107350000D03*
X93100000Y-107850000D03*
X93100000Y-108350000D03*
X93100000Y-108850000D03*
X93100000Y-109350000D03*
X93100000Y-109850000D03*
X93100000Y-110350000D03*
D14*
X94700000Y-111950000D03*
X95200000Y-111950000D03*
X95700000Y-111950000D03*
X96200000Y-111950000D03*
X96700000Y-111950000D03*
X97200000Y-111950000D03*
X97700000Y-111950000D03*
X98200000Y-111950000D03*
X98700000Y-111950000D03*
X99200000Y-111950000D03*
X99700000Y-111950000D03*
X100200000Y-111950000D03*
D18*
X98850000Y-99300000D03*
X98850000Y-100800000D03*
D11*
X94050000Y-99400700D03*
X94050000Y-100899300D03*
D19*
X92500000Y-100950000D03*
X92500000Y-99450000D03*
D18*
X95700000Y-99300000D03*
X95700000Y-100800000D03*
D11*
X97250000Y-99400700D03*
X97250000Y-100899300D03*
D15*
X83600000Y-121800000D03*
X76000000Y-121300000D03*
X76500000Y-115600000D03*
D28*
X82760000Y-116416000D03*
X82760000Y-114384000D03*
D29*
X84030000Y-114765000D03*
X85300000Y-114765000D03*
X86570000Y-114765000D03*
X84030000Y-116035000D03*
X86570000Y-116035000D03*
X85300000Y-116035000D03*
D28*
X87840000Y-115400000D03*
D19*
X72400000Y-116250000D03*
X72400000Y-114750000D03*
D18*
X74000000Y-116400000D03*
X74000000Y-114900000D03*
X58750000Y-99300000D03*
X58750000Y-100800000D03*
D11*
X57150000Y-99400700D03*
X57150000Y-100899300D03*
X60350000Y-99400700D03*
X60350000Y-100899300D03*
D18*
X61950000Y-99300000D03*
X61950000Y-100800000D03*
D19*
X62850000Y-114700000D03*
X62850000Y-116200000D03*
D12*
X65650000Y-109950000D03*
X64150000Y-109950000D03*
D24*
X65100000Y-112295000D03*
X65100000Y-113565000D03*
X65100000Y-114835000D03*
X65100000Y-116105000D03*
X70500000Y-116105000D03*
X70500000Y-114835000D03*
X70500000Y-113565000D03*
X70500000Y-112295000D03*
D17*
X71650000Y-106950000D03*
X71650000Y-108850000D03*
D23*
X68550000Y-105600000D03*
X68550000Y-109700000D03*
D12*
X65650000Y-108400000D03*
X64150000Y-108400000D03*
X64150000Y-106850000D03*
X65650000Y-106850000D03*
X64150000Y-105300000D03*
X65650000Y-105300000D03*
X91800000Y-112450000D03*
X90300000Y-112450000D03*
D25*
X89850000Y-109600000D03*
X89850000Y-105200000D03*
D26*
X87650000Y-102150000D03*
X83450000Y-102150000D03*
X87650000Y-112450000D03*
D27*
X87975000Y-108700000D03*
X87975000Y-108050000D03*
X87975000Y-106100000D03*
X87975000Y-106750000D03*
X87975000Y-107400000D03*
D26*
X83450000Y-112450000D03*
D15*
X83600000Y-99400000D03*
D16*
X76333000Y-110194000D03*
X76333000Y-107400000D03*
X76333000Y-104606000D03*
X76333000Y-101812000D03*
X76333000Y-112988000D03*
D20*
X71650000Y-103450000D03*
X71650000Y-105450000D03*
D15*
X76000000Y-98900000D03*
D21*
X68901660Y-102901140D03*
X68901660Y-101400000D03*
X68901660Y-99898860D03*
D22*
X65950180Y-101400000D03*
D10*
G36*
X67374650Y-100349240D02*
X68223950Y-100849620D01*
X68223950Y-101950380D01*
X67374650Y-102450760D01*
X67374650Y-100349240D01*
X67374650Y-100349240D01*
G37*
D20*
X71650000Y-99800000D03*
X71650000Y-101800000D03*
D12*
X104250000Y-151650000D03*
X105750000Y-151650000D03*
X104250000Y-150100000D03*
X105750000Y-150100000D03*
D21*
X109001660Y-147701140D03*
X109001660Y-146200000D03*
X109001660Y-144698860D03*
D22*
X106050180Y-146200000D03*
D10*
G36*
X107474650Y-145149240D02*
X108323950Y-145649620D01*
X108323950Y-146750380D01*
X107474650Y-147250760D01*
X107474650Y-145149240D01*
X107474650Y-145149240D01*
G37*
D20*
X111750000Y-148250000D03*
X111750000Y-150250000D03*
X111750000Y-144600000D03*
X111750000Y-146600000D03*
D23*
X108650000Y-150400000D03*
X108650000Y-154500000D03*
D12*
X105750000Y-154750000D03*
X104250000Y-154750000D03*
X105750000Y-153200000D03*
X104250000Y-153200000D03*
D17*
X111750000Y-151750000D03*
X111750000Y-153650000D03*
D19*
X112500000Y-161050000D03*
X112500000Y-159550000D03*
D24*
X105200000Y-157095000D03*
X105200000Y-158365000D03*
X105200000Y-159635000D03*
X105200000Y-160905000D03*
X110600000Y-160905000D03*
X110600000Y-159635000D03*
X110600000Y-158365000D03*
X110600000Y-157095000D03*
D16*
X76333000Y-154994000D03*
X76333000Y-152200000D03*
X76333000Y-149406000D03*
X76333000Y-146612000D03*
X76333000Y-157788000D03*
D15*
X76500000Y-160400000D03*
D12*
X91800000Y-157250000D03*
X90300000Y-157250000D03*
D15*
X83600000Y-144200000D03*
D28*
X82760000Y-161216000D03*
X82760000Y-159184000D03*
D29*
X84030000Y-159565000D03*
X85300000Y-159565000D03*
X86570000Y-159565000D03*
X84030000Y-160835000D03*
X86570000Y-160835000D03*
X85300000Y-160835000D03*
D28*
X87840000Y-160200000D03*
D25*
X89850000Y-154400000D03*
X89850000Y-150000000D03*
D26*
X87650000Y-146950000D03*
X83450000Y-146950000D03*
X87650000Y-157250000D03*
D27*
X87975000Y-153500000D03*
X87975000Y-152850000D03*
X87975000Y-150900000D03*
X87975000Y-151550000D03*
X87975000Y-152200000D03*
D26*
X83450000Y-157250000D03*
D19*
X92500000Y-145750000D03*
X92500000Y-144250000D03*
D18*
X114100000Y-161200000D03*
X114100000Y-159700000D03*
D28*
X122860000Y-161216000D03*
X122860000Y-159184000D03*
D29*
X124130000Y-159565000D03*
X125400000Y-159565000D03*
X126670000Y-159565000D03*
X124130000Y-160835000D03*
X126670000Y-160835000D03*
X125400000Y-160835000D03*
D28*
X127940000Y-160200000D03*
D15*
X123700000Y-144200000D03*
D25*
X129950000Y-154400000D03*
X129950000Y-150000000D03*
D26*
X127750000Y-146950000D03*
X123550000Y-146950000D03*
X127750000Y-157250000D03*
D27*
X128075000Y-153500000D03*
X128075000Y-152850000D03*
X128075000Y-150900000D03*
X128075000Y-151550000D03*
X128075000Y-152200000D03*
D26*
X123550000Y-157250000D03*
D15*
X116600000Y-160400000D03*
D16*
X116433000Y-154994000D03*
X116433000Y-152200000D03*
X116433000Y-149406000D03*
X116433000Y-146612000D03*
X116433000Y-157788000D03*
D18*
X95700000Y-144100000D03*
X95700000Y-145600000D03*
D11*
X94050000Y-144200700D03*
X94050000Y-145699300D03*
D18*
X98850000Y-144100000D03*
X98850000Y-145600000D03*
D11*
X100450000Y-144200700D03*
X100450000Y-145699300D03*
X97250000Y-144200700D03*
X97250000Y-145699300D03*
D18*
X102050000Y-144100000D03*
X102050000Y-145600000D03*
D19*
X102950000Y-159500000D03*
X102950000Y-161000000D03*
D18*
X94300000Y-159650000D03*
X94300000Y-161150000D03*
D17*
X97700000Y-161050000D03*
X97700000Y-159150000D03*
D13*
X101800000Y-155150000D03*
X101800000Y-154650000D03*
X101800000Y-154150000D03*
X101800000Y-153650000D03*
X101800000Y-153150000D03*
X101800000Y-152650000D03*
X101800000Y-152150000D03*
X101800000Y-151650000D03*
X101800000Y-151150000D03*
X101800000Y-150650000D03*
X101800000Y-150150000D03*
X101800000Y-149650000D03*
D14*
X100200000Y-148050000D03*
X99700000Y-148050000D03*
X99200000Y-148050000D03*
X98700000Y-148050000D03*
X98200000Y-148050000D03*
X97700000Y-148050000D03*
X97200000Y-148050000D03*
X96700000Y-148050000D03*
X96200000Y-148050000D03*
X95700000Y-148050000D03*
X95200000Y-148050000D03*
X94700000Y-148050000D03*
D13*
X93100000Y-149650000D03*
X93100000Y-150150000D03*
X93100000Y-150650000D03*
X93100000Y-151150000D03*
X93100000Y-151650000D03*
X93100000Y-152150000D03*
X93100000Y-152650000D03*
X93100000Y-153150000D03*
X93100000Y-153650000D03*
X93100000Y-154150000D03*
X93100000Y-154650000D03*
X93100000Y-155150000D03*
D14*
X94700000Y-156750000D03*
X95200000Y-156750000D03*
X95700000Y-156750000D03*
X96200000Y-156750000D03*
X96700000Y-156750000D03*
X97200000Y-156750000D03*
X97700000Y-156750000D03*
X98200000Y-156750000D03*
X98700000Y-156750000D03*
X99200000Y-156750000D03*
X99700000Y-156750000D03*
X100200000Y-156750000D03*
D20*
X101200000Y-158900000D03*
X101200000Y-160900000D03*
D18*
X92700000Y-161150000D03*
X92700000Y-159650000D03*
D19*
X99450000Y-159500000D03*
X99450000Y-161000000D03*
D18*
X95900000Y-161150000D03*
X95900000Y-159650000D03*
D19*
X59350000Y-137100000D03*
X59350000Y-138600000D03*
D13*
X61700000Y-132750000D03*
X61700000Y-132250000D03*
X61700000Y-131750000D03*
X61700000Y-131250000D03*
X61700000Y-130750000D03*
X61700000Y-130250000D03*
X61700000Y-129750000D03*
X61700000Y-129250000D03*
X61700000Y-128750000D03*
X61700000Y-128250000D03*
X61700000Y-127750000D03*
X61700000Y-127250000D03*
D14*
X60100000Y-125650000D03*
X59600000Y-125650000D03*
X59100000Y-125650000D03*
X58600000Y-125650000D03*
X58100000Y-125650000D03*
X57600000Y-125650000D03*
X57100000Y-125650000D03*
X56600000Y-125650000D03*
X56100000Y-125650000D03*
X55600000Y-125650000D03*
X55100000Y-125650000D03*
X54600000Y-125650000D03*
D13*
X53000000Y-127250000D03*
X53000000Y-127750000D03*
X53000000Y-128250000D03*
X53000000Y-128750000D03*
X53000000Y-129250000D03*
X53000000Y-129750000D03*
X53000000Y-130250000D03*
X53000000Y-130750000D03*
X53000000Y-131250000D03*
X53000000Y-131750000D03*
X53000000Y-132250000D03*
X53000000Y-132750000D03*
D14*
X54600000Y-134350000D03*
X55100000Y-134350000D03*
X55600000Y-134350000D03*
X56100000Y-134350000D03*
X56600000Y-134350000D03*
X57100000Y-134350000D03*
X57600000Y-134350000D03*
X58100000Y-134350000D03*
X58600000Y-134350000D03*
X59100000Y-134350000D03*
X59600000Y-134350000D03*
X60100000Y-134350000D03*
D12*
X65650000Y-130800000D03*
X64150000Y-130800000D03*
X65650000Y-132350000D03*
X64150000Y-132350000D03*
X64150000Y-129250000D03*
X65650000Y-129250000D03*
X64150000Y-127700000D03*
X65650000Y-127700000D03*
D17*
X71650000Y-129350000D03*
X71650000Y-131250000D03*
D20*
X71650000Y-125850000D03*
X71650000Y-127850000D03*
D23*
X68550000Y-128000000D03*
X68550000Y-132100000D03*
D21*
X68901660Y-125301140D03*
X68901660Y-123800000D03*
X68901660Y-122298860D03*
D22*
X65950180Y-123800000D03*
D10*
G36*
X67374650Y-122749240D02*
X68223950Y-123249620D01*
X68223950Y-124350380D01*
X67374650Y-124850760D01*
X67374650Y-122749240D01*
X67374650Y-122749240D01*
G37*
D20*
X71650000Y-122200000D03*
X71650000Y-124200000D03*
D15*
X43500000Y-144200000D03*
D18*
X52600000Y-138750000D03*
X52600000Y-137250000D03*
D25*
X49750000Y-132000000D03*
X49750000Y-127600000D03*
D26*
X47550000Y-124550000D03*
X43350000Y-124550000D03*
X47550000Y-134850000D03*
D27*
X47875000Y-131100000D03*
X47875000Y-130450000D03*
X47875000Y-128500000D03*
X47875000Y-129150000D03*
X47875000Y-129800000D03*
D26*
X43350000Y-134850000D03*
D28*
X42660000Y-138816000D03*
X42660000Y-136784000D03*
D29*
X43930000Y-137165000D03*
X45200000Y-137165000D03*
X46470000Y-137165000D03*
X43930000Y-138435000D03*
X46470000Y-138435000D03*
X45200000Y-138435000D03*
D28*
X47740000Y-137800000D03*
D12*
X51700000Y-134850000D03*
X50200000Y-134850000D03*
D18*
X55600000Y-144100000D03*
X55600000Y-145600000D03*
X58750000Y-144100000D03*
X58750000Y-145600000D03*
X55800000Y-138750000D03*
X55800000Y-137250000D03*
X61950000Y-144100000D03*
X61950000Y-145600000D03*
D17*
X57600000Y-138650000D03*
X57600000Y-136750000D03*
D18*
X54200000Y-137250000D03*
X54200000Y-138750000D03*
D20*
X111750000Y-125850000D03*
X111750000Y-127850000D03*
D17*
X111750000Y-129350000D03*
X111750000Y-131250000D03*
D20*
X111750000Y-122200000D03*
X111750000Y-124200000D03*
D23*
X108650000Y-128000000D03*
X108650000Y-132100000D03*
D21*
X109001660Y-125301140D03*
X109001660Y-123800000D03*
X109001660Y-122298860D03*
D22*
X106050180Y-123800000D03*
D10*
G36*
X107474650Y-122749240D02*
X108323950Y-123249620D01*
X108323950Y-124350380D01*
X107474650Y-124850760D01*
X107474650Y-122749240D01*
X107474650Y-122749240D01*
G37*
D15*
X116100000Y-143700000D03*
D28*
X122860000Y-138816000D03*
X122860000Y-136784000D03*
D29*
X124130000Y-137165000D03*
X125400000Y-137165000D03*
X126670000Y-137165000D03*
X124130000Y-138435000D03*
X126670000Y-138435000D03*
X125400000Y-138435000D03*
D28*
X127940000Y-137800000D03*
D25*
X129950000Y-132000000D03*
X129950000Y-127600000D03*
D26*
X127750000Y-124550000D03*
X123550000Y-124550000D03*
X127750000Y-134850000D03*
D27*
X128075000Y-131100000D03*
X128075000Y-130450000D03*
X128075000Y-128500000D03*
X128075000Y-129150000D03*
X128075000Y-129800000D03*
D26*
X123550000Y-134850000D03*
D16*
X116433000Y-132594000D03*
X116433000Y-129800000D03*
X116433000Y-127006000D03*
X116433000Y-124212000D03*
X116433000Y-135388000D03*
D15*
X116600000Y-138000000D03*
X116600000Y-115600000D03*
D28*
X122860000Y-116416000D03*
X122860000Y-114384000D03*
D29*
X124130000Y-114765000D03*
X125400000Y-114765000D03*
X126670000Y-114765000D03*
X124130000Y-116035000D03*
X126670000Y-116035000D03*
X125400000Y-116035000D03*
D28*
X127940000Y-115400000D03*
D15*
X123700000Y-99400000D03*
D16*
X116433000Y-110194000D03*
X116433000Y-107400000D03*
X116433000Y-104606000D03*
X116433000Y-101812000D03*
X116433000Y-112988000D03*
D25*
X129950000Y-109600000D03*
X129950000Y-105200000D03*
D26*
X127750000Y-102150000D03*
X123550000Y-102150000D03*
X127750000Y-112450000D03*
D27*
X128075000Y-108700000D03*
X128075000Y-108050000D03*
X128075000Y-106100000D03*
X128075000Y-106750000D03*
X128075000Y-107400000D03*
D26*
X123550000Y-112450000D03*
D18*
X114100000Y-116400000D03*
X114100000Y-114900000D03*
D15*
X116100000Y-98900000D03*
D20*
X111750000Y-99800000D03*
X111750000Y-101800000D03*
X111750000Y-103450000D03*
X111750000Y-105450000D03*
D21*
X109001660Y-102901140D03*
X109001660Y-101400000D03*
X109001660Y-99898860D03*
D22*
X106050180Y-101400000D03*
D10*
G36*
X107474650Y-100349240D02*
X108323950Y-100849620D01*
X108323950Y-101950380D01*
X107474650Y-102450760D01*
X107474650Y-100349240D01*
X107474650Y-100349240D01*
G37*
D12*
X104250000Y-106850000D03*
X105750000Y-106850000D03*
X105750000Y-109950000D03*
X104250000Y-109950000D03*
X105750000Y-108400000D03*
X104250000Y-108400000D03*
D23*
X108650000Y-105600000D03*
X108650000Y-109700000D03*
D17*
X111750000Y-106950000D03*
X111750000Y-108850000D03*
D24*
X105200000Y-112295000D03*
X105200000Y-113565000D03*
X105200000Y-114835000D03*
X105200000Y-116105000D03*
X110600000Y-116105000D03*
X110600000Y-114835000D03*
X110600000Y-113565000D03*
X110600000Y-112295000D03*
D12*
X104250000Y-105300000D03*
X105750000Y-105300000D03*
D19*
X112500000Y-116250000D03*
X112500000Y-114750000D03*
D18*
X114100000Y-138800000D03*
X114100000Y-137300000D03*
D15*
X116100000Y-121300000D03*
D24*
X105200000Y-134695000D03*
X105200000Y-135965000D03*
X105200000Y-137235000D03*
X105200000Y-138505000D03*
X110600000Y-138505000D03*
X110600000Y-137235000D03*
X110600000Y-135965000D03*
X110600000Y-134695000D03*
D19*
X112500000Y-138650000D03*
X112500000Y-137150000D03*
D15*
X123700000Y-121800000D03*
D18*
X132800000Y-93950000D03*
X132800000Y-92450000D03*
X134400000Y-92450000D03*
X134400000Y-93950000D03*
X136000000Y-93950000D03*
X136000000Y-92450000D03*
D19*
X139550000Y-92300000D03*
X139550000Y-93800000D03*
D17*
X137800000Y-93850000D03*
X137800000Y-91950000D03*
D11*
X137350000Y-77000700D03*
X137350000Y-78499300D03*
D18*
X138950000Y-76900000D03*
X138950000Y-78400000D03*
D11*
X134150000Y-77000700D03*
X134150000Y-78499300D03*
D19*
X132600000Y-78550000D03*
X132600000Y-77050000D03*
D18*
X135800000Y-76900000D03*
X135800000Y-78400000D03*
D23*
X148750000Y-83200000D03*
X148750000Y-87300000D03*
D17*
X151850000Y-84550000D03*
X151850000Y-86450000D03*
D21*
X149101660Y-80501140D03*
X149101660Y-79000000D03*
X149101660Y-77498860D03*
D22*
X146150180Y-79000000D03*
D10*
G36*
X147574650Y-77949240D02*
X148423950Y-78449620D01*
X148423950Y-79550380D01*
X147574650Y-80050760D01*
X147574650Y-77949240D01*
X147574650Y-77949240D01*
G37*
D20*
X151850000Y-77400000D03*
X151850000Y-79400000D03*
X151850000Y-81050000D03*
X151850000Y-83050000D03*
D19*
X152600000Y-93850000D03*
X152600000Y-92350000D03*
D12*
X145850000Y-87550000D03*
X144350000Y-87550000D03*
D19*
X143050000Y-92300000D03*
X143050000Y-93800000D03*
D24*
X145300000Y-89895000D03*
X145300000Y-91165000D03*
X145300000Y-92435000D03*
X145300000Y-93705000D03*
X150700000Y-93705000D03*
X150700000Y-92435000D03*
X150700000Y-91165000D03*
X150700000Y-89895000D03*
D20*
X141300000Y-91700000D03*
X141300000Y-93700000D03*
D13*
X141900000Y-87950000D03*
X141900000Y-87450000D03*
X141900000Y-86950000D03*
X141900000Y-86450000D03*
X141900000Y-85950000D03*
X141900000Y-85450000D03*
X141900000Y-84950000D03*
X141900000Y-84450000D03*
X141900000Y-83950000D03*
X141900000Y-83450000D03*
X141900000Y-82950000D03*
X141900000Y-82450000D03*
D14*
X140300000Y-80850000D03*
X139800000Y-80850000D03*
X139300000Y-80850000D03*
X138800000Y-80850000D03*
X138300000Y-80850000D03*
X137800000Y-80850000D03*
X137300000Y-80850000D03*
X136800000Y-80850000D03*
X136300000Y-80850000D03*
X135800000Y-80850000D03*
X135300000Y-80850000D03*
X134800000Y-80850000D03*
D13*
X133200000Y-82450000D03*
X133200000Y-82950000D03*
X133200000Y-83450000D03*
X133200000Y-83950000D03*
X133200000Y-84450000D03*
X133200000Y-84950000D03*
X133200000Y-85450000D03*
X133200000Y-85950000D03*
X133200000Y-86450000D03*
X133200000Y-86950000D03*
X133200000Y-87450000D03*
X133200000Y-87950000D03*
D14*
X134800000Y-89550000D03*
X135300000Y-89550000D03*
X135800000Y-89550000D03*
X136300000Y-89550000D03*
X136800000Y-89550000D03*
X137300000Y-89550000D03*
X137800000Y-89550000D03*
X138300000Y-89550000D03*
X138800000Y-89550000D03*
X139300000Y-89550000D03*
X139800000Y-89550000D03*
X140300000Y-89550000D03*
D11*
X140550000Y-77000700D03*
X140550000Y-78499300D03*
D18*
X142150000Y-76900000D03*
X142150000Y-78400000D03*
D12*
X144350000Y-84450000D03*
X145850000Y-84450000D03*
X144350000Y-82900000D03*
X145850000Y-82900000D03*
X145850000Y-86000000D03*
X144350000Y-86000000D03*
D15*
X116600000Y-93200000D03*
D28*
X122860000Y-94016000D03*
X122860000Y-91984000D03*
D29*
X124130000Y-92365000D03*
X125400000Y-92365000D03*
X126670000Y-92365000D03*
X124130000Y-93635000D03*
X126670000Y-93635000D03*
X125400000Y-93635000D03*
D28*
X127940000Y-93000000D03*
D25*
X129950000Y-87200000D03*
X129950000Y-82800000D03*
D26*
X127750000Y-79750000D03*
X123550000Y-79750000D03*
X127750000Y-90050000D03*
D27*
X128075000Y-86300000D03*
X128075000Y-85650000D03*
X128075000Y-83700000D03*
X128075000Y-84350000D03*
X128075000Y-85000000D03*
D26*
X123550000Y-90050000D03*
D12*
X131900000Y-90050000D03*
X130400000Y-90050000D03*
D15*
X123700000Y-77000000D03*
D16*
X116433000Y-87794000D03*
X116433000Y-85000000D03*
X116433000Y-82206000D03*
X116433000Y-79412000D03*
X116433000Y-90588000D03*
D21*
X109001660Y-80501140D03*
X109001660Y-79000000D03*
X109001660Y-77498860D03*
D22*
X106050180Y-79000000D03*
D10*
G36*
X107474650Y-77949240D02*
X108323950Y-78449620D01*
X108323950Y-79550380D01*
X107474650Y-80050760D01*
X107474650Y-77949240D01*
X107474650Y-77949240D01*
G37*
D18*
X114100000Y-94000000D03*
X114100000Y-92500000D03*
D20*
X111750000Y-77400000D03*
X111750000Y-79400000D03*
X111750000Y-81050000D03*
X111750000Y-83050000D03*
D15*
X116100000Y-76500000D03*
D19*
X112500000Y-93850000D03*
X112500000Y-92350000D03*
D17*
X111750000Y-84550000D03*
X111750000Y-86450000D03*
D23*
X108650000Y-83200000D03*
X108650000Y-87300000D03*
D24*
X105200000Y-89895000D03*
X105200000Y-91165000D03*
X105200000Y-92435000D03*
X105200000Y-93705000D03*
X110600000Y-93705000D03*
X110600000Y-92435000D03*
X110600000Y-91165000D03*
X110600000Y-89895000D03*
D12*
X104250000Y-82900000D03*
X105750000Y-82900000D03*
X105750000Y-86000000D03*
X104250000Y-86000000D03*
X105750000Y-87550000D03*
X104250000Y-87550000D03*
X104250000Y-84450000D03*
X105750000Y-84450000D03*
D20*
X101200000Y-91700000D03*
X101200000Y-93700000D03*
D19*
X102950000Y-92300000D03*
X102950000Y-93800000D03*
D18*
X94300000Y-92450000D03*
X94300000Y-93950000D03*
X92700000Y-93950000D03*
X92700000Y-92450000D03*
D19*
X99450000Y-92300000D03*
X99450000Y-93800000D03*
D18*
X95900000Y-93950000D03*
X95900000Y-92450000D03*
D13*
X101800000Y-87950000D03*
X101800000Y-87450000D03*
X101800000Y-86950000D03*
X101800000Y-86450000D03*
X101800000Y-85950000D03*
X101800000Y-85450000D03*
X101800000Y-84950000D03*
X101800000Y-84450000D03*
X101800000Y-83950000D03*
X101800000Y-83450000D03*
X101800000Y-82950000D03*
X101800000Y-82450000D03*
D14*
X100200000Y-80850000D03*
X99700000Y-80850000D03*
X99200000Y-80850000D03*
X98700000Y-80850000D03*
X98200000Y-80850000D03*
X97700000Y-80850000D03*
X97200000Y-80850000D03*
X96700000Y-80850000D03*
X96200000Y-80850000D03*
X95700000Y-80850000D03*
X95200000Y-80850000D03*
X94700000Y-80850000D03*
D13*
X93100000Y-82450000D03*
X93100000Y-82950000D03*
X93100000Y-83450000D03*
X93100000Y-83950000D03*
X93100000Y-84450000D03*
X93100000Y-84950000D03*
X93100000Y-85450000D03*
X93100000Y-85950000D03*
X93100000Y-86450000D03*
X93100000Y-86950000D03*
X93100000Y-87450000D03*
X93100000Y-87950000D03*
D14*
X94700000Y-89550000D03*
X95200000Y-89550000D03*
X95700000Y-89550000D03*
X96200000Y-89550000D03*
X96700000Y-89550000D03*
X97200000Y-89550000D03*
X97700000Y-89550000D03*
X98200000Y-89550000D03*
X98700000Y-89550000D03*
X99200000Y-89550000D03*
X99700000Y-89550000D03*
X100200000Y-89550000D03*
D17*
X97700000Y-93850000D03*
X97700000Y-91950000D03*
D18*
X98850000Y-76900000D03*
X98850000Y-78400000D03*
D11*
X97250000Y-77000700D03*
X97250000Y-78499300D03*
X100450000Y-77000700D03*
X100450000Y-78499300D03*
D19*
X92500000Y-78550000D03*
X92500000Y-77050000D03*
D11*
X94050000Y-77000700D03*
X94050000Y-78499300D03*
D18*
X102050000Y-76900000D03*
X102050000Y-78400000D03*
X95700000Y-76900000D03*
X95700000Y-78400000D03*
D20*
X191950000Y-81050000D03*
X191950000Y-83050000D03*
D12*
X184450000Y-82900000D03*
X185950000Y-82900000D03*
D21*
X189201660Y-80501140D03*
X189201660Y-79000000D03*
X189201660Y-77498860D03*
D22*
X186250180Y-79000000D03*
D10*
G36*
X187674650Y-77949240D02*
X188523950Y-78449620D01*
X188523950Y-79550380D01*
X187674650Y-80050760D01*
X187674650Y-77949240D01*
X187674650Y-77949240D01*
G37*
D20*
X191950000Y-77400000D03*
X191950000Y-79400000D03*
D12*
X184450000Y-84450000D03*
X185950000Y-84450000D03*
X185950000Y-87550000D03*
X184450000Y-87550000D03*
D23*
X188850000Y-83200000D03*
X188850000Y-87300000D03*
D24*
X185400000Y-89895000D03*
X185400000Y-91165000D03*
X185400000Y-92435000D03*
X185400000Y-93705000D03*
X190800000Y-93705000D03*
X190800000Y-92435000D03*
X190800000Y-91165000D03*
X190800000Y-89895000D03*
D17*
X191950000Y-84550000D03*
X191950000Y-86450000D03*
D12*
X185950000Y-86000000D03*
X184450000Y-86000000D03*
D18*
X172900000Y-93950000D03*
X172900000Y-92450000D03*
D19*
X183150000Y-92300000D03*
X183150000Y-93800000D03*
D17*
X177900000Y-93850000D03*
X177900000Y-91950000D03*
D20*
X181400000Y-91700000D03*
X181400000Y-93700000D03*
D19*
X179650000Y-92300000D03*
X179650000Y-93800000D03*
D18*
X176100000Y-93950000D03*
X176100000Y-92450000D03*
X174500000Y-92450000D03*
X174500000Y-93950000D03*
D25*
X170050000Y-87200000D03*
X170050000Y-82800000D03*
D26*
X167850000Y-79750000D03*
X163650000Y-79750000D03*
X167850000Y-90050000D03*
D27*
X168175000Y-86300000D03*
X168175000Y-85650000D03*
X168175000Y-83700000D03*
X168175000Y-84350000D03*
X168175000Y-85000000D03*
D26*
X163650000Y-90050000D03*
D15*
X156700000Y-93200000D03*
D18*
X154200000Y-94000000D03*
X154200000Y-92500000D03*
D28*
X162960000Y-94016000D03*
X162960000Y-91984000D03*
D29*
X164230000Y-92365000D03*
X165500000Y-92365000D03*
X166770000Y-92365000D03*
X164230000Y-93635000D03*
X166770000Y-93635000D03*
X165500000Y-93635000D03*
D28*
X168040000Y-93000000D03*
D12*
X172000000Y-90050000D03*
X170500000Y-90050000D03*
D15*
X156200000Y-76500000D03*
X163800000Y-77000000D03*
D16*
X156533000Y-87794000D03*
X156533000Y-85000000D03*
X156533000Y-82206000D03*
X156533000Y-79412000D03*
X156533000Y-90588000D03*
D13*
X182000000Y-87950000D03*
X182000000Y-87450000D03*
X182000000Y-86950000D03*
X182000000Y-86450000D03*
X182000000Y-85950000D03*
X182000000Y-85450000D03*
X182000000Y-84950000D03*
X182000000Y-84450000D03*
X182000000Y-83950000D03*
X182000000Y-83450000D03*
X182000000Y-82950000D03*
X182000000Y-82450000D03*
D14*
X180400000Y-80850000D03*
X179900000Y-80850000D03*
X179400000Y-80850000D03*
X178900000Y-80850000D03*
X178400000Y-80850000D03*
X177900000Y-80850000D03*
X177400000Y-80850000D03*
X176900000Y-80850000D03*
X176400000Y-80850000D03*
X175900000Y-80850000D03*
X175400000Y-80850000D03*
X174900000Y-80850000D03*
D13*
X173300000Y-82450000D03*
X173300000Y-82950000D03*
X173300000Y-83450000D03*
X173300000Y-83950000D03*
X173300000Y-84450000D03*
X173300000Y-84950000D03*
X173300000Y-85450000D03*
X173300000Y-85950000D03*
X173300000Y-86450000D03*
X173300000Y-86950000D03*
X173300000Y-87450000D03*
X173300000Y-87950000D03*
D14*
X174900000Y-89550000D03*
X175400000Y-89550000D03*
X175900000Y-89550000D03*
X176400000Y-89550000D03*
X176900000Y-89550000D03*
X177400000Y-89550000D03*
X177900000Y-89550000D03*
X178400000Y-89550000D03*
X178900000Y-89550000D03*
X179400000Y-89550000D03*
X179900000Y-89550000D03*
X180400000Y-89550000D03*
D11*
X180650000Y-77000700D03*
X180650000Y-78499300D03*
D18*
X179050000Y-76900000D03*
X179050000Y-78400000D03*
D19*
X172700000Y-78550000D03*
X172700000Y-77050000D03*
D18*
X182250000Y-76900000D03*
X182250000Y-78400000D03*
D11*
X177450000Y-77000700D03*
X177450000Y-78499300D03*
D18*
X175900000Y-76900000D03*
X175900000Y-78400000D03*
D11*
X174250000Y-77000700D03*
X174250000Y-78499300D03*
D15*
X196800000Y-93200000D03*
D16*
X196633000Y-87794000D03*
X196633000Y-85000000D03*
X196633000Y-82206000D03*
X196633000Y-79412000D03*
X196633000Y-90588000D03*
D15*
X196300000Y-76500000D03*
D19*
X192700000Y-93850000D03*
X192700000Y-92350000D03*
D18*
X194300000Y-94000000D03*
X194300000Y-92500000D03*
D15*
X83600000Y-77000000D03*
D16*
X76333000Y-87794000D03*
X76333000Y-85000000D03*
X76333000Y-82206000D03*
X76333000Y-79412000D03*
X76333000Y-90588000D03*
D25*
X89850000Y-87200000D03*
X89850000Y-82800000D03*
D26*
X87650000Y-79750000D03*
X83450000Y-79750000D03*
X87650000Y-90050000D03*
D27*
X87975000Y-86300000D03*
X87975000Y-85650000D03*
X87975000Y-83700000D03*
X87975000Y-84350000D03*
X87975000Y-85000000D03*
D26*
X83450000Y-90050000D03*
D12*
X91800000Y-90050000D03*
X90300000Y-90050000D03*
D18*
X74000000Y-94000000D03*
X74000000Y-92500000D03*
D15*
X76500000Y-93200000D03*
D28*
X82760000Y-94016000D03*
X82760000Y-91984000D03*
D29*
X84030000Y-92365000D03*
X85300000Y-92365000D03*
X86570000Y-92365000D03*
X84030000Y-93635000D03*
X86570000Y-93635000D03*
X85300000Y-93635000D03*
D28*
X87840000Y-93000000D03*
D12*
X64150000Y-84450000D03*
X65650000Y-84450000D03*
X64150000Y-82900000D03*
X65650000Y-82900000D03*
D23*
X68550000Y-83200000D03*
X68550000Y-87300000D03*
D17*
X71650000Y-84550000D03*
X71650000Y-86450000D03*
D19*
X62850000Y-92300000D03*
X62850000Y-93800000D03*
X72400000Y-93850000D03*
X72400000Y-92350000D03*
D12*
X65650000Y-86000000D03*
X64150000Y-86000000D03*
D24*
X65100000Y-89895000D03*
X65100000Y-91165000D03*
X65100000Y-92435000D03*
X65100000Y-93705000D03*
X70500000Y-93705000D03*
X70500000Y-92435000D03*
X70500000Y-91165000D03*
X70500000Y-89895000D03*
D12*
X65650000Y-87550000D03*
X64150000Y-87550000D03*
D20*
X71650000Y-77400000D03*
X71650000Y-79400000D03*
X71650000Y-81050000D03*
X71650000Y-83050000D03*
D15*
X76000000Y-76500000D03*
D21*
X68901660Y-80501140D03*
X68901660Y-79000000D03*
X68901660Y-77498860D03*
D22*
X65950180Y-79000000D03*
D10*
G36*
X67374650Y-77949240D02*
X68223950Y-78449620D01*
X68223950Y-79550380D01*
X67374650Y-80050760D01*
X67374650Y-77949240D01*
X67374650Y-77949240D01*
G37*
D11*
X53950000Y-77000700D03*
X53950000Y-78499300D03*
D18*
X55600000Y-76900000D03*
X55600000Y-78400000D03*
D13*
X61700000Y-87950000D03*
X61700000Y-87450000D03*
X61700000Y-86950000D03*
X61700000Y-86450000D03*
X61700000Y-85950000D03*
X61700000Y-85450000D03*
X61700000Y-84950000D03*
X61700000Y-84450000D03*
X61700000Y-83950000D03*
X61700000Y-83450000D03*
X61700000Y-82950000D03*
X61700000Y-82450000D03*
D14*
X60100000Y-80850000D03*
X59600000Y-80850000D03*
X59100000Y-80850000D03*
X58600000Y-80850000D03*
X58100000Y-80850000D03*
X57600000Y-80850000D03*
X57100000Y-80850000D03*
X56600000Y-80850000D03*
X56100000Y-80850000D03*
X55600000Y-80850000D03*
X55100000Y-80850000D03*
X54600000Y-80850000D03*
D13*
X53000000Y-82450000D03*
X53000000Y-82950000D03*
X53000000Y-83450000D03*
X53000000Y-83950000D03*
X53000000Y-84450000D03*
X53000000Y-84950000D03*
X53000000Y-85450000D03*
X53000000Y-85950000D03*
X53000000Y-86450000D03*
X53000000Y-86950000D03*
X53000000Y-87450000D03*
X53000000Y-87950000D03*
D14*
X54600000Y-89550000D03*
X55100000Y-89550000D03*
X55600000Y-89550000D03*
X56100000Y-89550000D03*
X56600000Y-89550000D03*
X57100000Y-89550000D03*
X57600000Y-89550000D03*
X58100000Y-89550000D03*
X58600000Y-89550000D03*
X59100000Y-89550000D03*
X59600000Y-89550000D03*
X60100000Y-89550000D03*
D19*
X52400000Y-78550000D03*
X52400000Y-77050000D03*
D17*
X57600000Y-93850000D03*
X57600000Y-91950000D03*
D20*
X61100000Y-91700000D03*
X61100000Y-93700000D03*
D18*
X54200000Y-92450000D03*
X54200000Y-93950000D03*
X55800000Y-93950000D03*
X55800000Y-92450000D03*
D19*
X59350000Y-92300000D03*
X59350000Y-93800000D03*
D18*
X61950000Y-76900000D03*
X61950000Y-78400000D03*
X58750000Y-76900000D03*
X58750000Y-78400000D03*
D11*
X60350000Y-77000700D03*
X60350000Y-78499300D03*
X57150000Y-77000700D03*
X57150000Y-78499300D03*
D28*
X42660000Y-94016000D03*
X42660000Y-91984000D03*
D29*
X43930000Y-92365000D03*
X45200000Y-92365000D03*
X46470000Y-92365000D03*
X43930000Y-93635000D03*
X46470000Y-93635000D03*
X45200000Y-93635000D03*
D28*
X47740000Y-93000000D03*
D18*
X52600000Y-93950000D03*
X52600000Y-92450000D03*
D15*
X43500000Y-77000000D03*
D12*
X51700000Y-90050000D03*
X50200000Y-90050000D03*
D25*
X49750000Y-87200000D03*
X49750000Y-82800000D03*
D26*
X47550000Y-79750000D03*
X43350000Y-79750000D03*
X47550000Y-90050000D03*
D27*
X47875000Y-86300000D03*
X47875000Y-85650000D03*
X47875000Y-83700000D03*
X47875000Y-84350000D03*
X47875000Y-85000000D03*
D26*
X43350000Y-90050000D03*
D18*
X132800000Y-71550000D03*
X132800000Y-70050000D03*
X134400000Y-70050000D03*
X134400000Y-71550000D03*
X136000000Y-71550000D03*
X136000000Y-70050000D03*
D19*
X139550000Y-69900000D03*
X139550000Y-71400000D03*
D17*
X137800000Y-71450000D03*
X137800000Y-69550000D03*
D11*
X137350000Y-54600700D03*
X137350000Y-56099300D03*
D18*
X138950000Y-54500000D03*
X138950000Y-56000000D03*
D11*
X134150000Y-54600700D03*
X134150000Y-56099300D03*
D19*
X132600000Y-56150000D03*
X132600000Y-54650000D03*
D18*
X135800000Y-54500000D03*
X135800000Y-56000000D03*
D23*
X148750000Y-60800000D03*
X148750000Y-64900000D03*
D17*
X151850000Y-62150000D03*
X151850000Y-64050000D03*
D21*
X149101660Y-58101140D03*
X149101660Y-56600000D03*
X149101660Y-55098860D03*
D22*
X146150180Y-56600000D03*
D10*
G36*
X147574650Y-55549240D02*
X148423950Y-56049620D01*
X148423950Y-57150380D01*
X147574650Y-57650760D01*
X147574650Y-55549240D01*
X147574650Y-55549240D01*
G37*
D20*
X151850000Y-55000000D03*
X151850000Y-57000000D03*
X151850000Y-58650000D03*
X151850000Y-60650000D03*
D19*
X152600000Y-71450000D03*
X152600000Y-69950000D03*
D12*
X145850000Y-65150000D03*
X144350000Y-65150000D03*
D19*
X143050000Y-69900000D03*
X143050000Y-71400000D03*
D24*
X145300000Y-67495000D03*
X145300000Y-68765000D03*
X145300000Y-70035000D03*
X145300000Y-71305000D03*
X150700000Y-71305000D03*
X150700000Y-70035000D03*
X150700000Y-68765000D03*
X150700000Y-67495000D03*
D20*
X141300000Y-69300000D03*
X141300000Y-71300000D03*
D13*
X141900000Y-65550000D03*
X141900000Y-65050000D03*
X141900000Y-64550000D03*
X141900000Y-64050000D03*
X141900000Y-63550000D03*
X141900000Y-63050000D03*
X141900000Y-62550000D03*
X141900000Y-62050000D03*
X141900000Y-61550000D03*
X141900000Y-61050000D03*
X141900000Y-60550000D03*
X141900000Y-60050000D03*
D14*
X140300000Y-58450000D03*
X139800000Y-58450000D03*
X139300000Y-58450000D03*
X138800000Y-58450000D03*
X138300000Y-58450000D03*
X137800000Y-58450000D03*
X137300000Y-58450000D03*
X136800000Y-58450000D03*
X136300000Y-58450000D03*
X135800000Y-58450000D03*
X135300000Y-58450000D03*
X134800000Y-58450000D03*
D13*
X133200000Y-60050000D03*
X133200000Y-60550000D03*
X133200000Y-61050000D03*
X133200000Y-61550000D03*
X133200000Y-62050000D03*
X133200000Y-62550000D03*
X133200000Y-63050000D03*
X133200000Y-63550000D03*
X133200000Y-64050000D03*
X133200000Y-64550000D03*
X133200000Y-65050000D03*
X133200000Y-65550000D03*
D14*
X134800000Y-67150000D03*
X135300000Y-67150000D03*
X135800000Y-67150000D03*
X136300000Y-67150000D03*
X136800000Y-67150000D03*
X137300000Y-67150000D03*
X137800000Y-67150000D03*
X138300000Y-67150000D03*
X138800000Y-67150000D03*
X139300000Y-67150000D03*
X139800000Y-67150000D03*
X140300000Y-67150000D03*
D11*
X140550000Y-54600700D03*
X140550000Y-56099300D03*
D18*
X142150000Y-54500000D03*
X142150000Y-56000000D03*
D12*
X144350000Y-62050000D03*
X145850000Y-62050000D03*
X144350000Y-60500000D03*
X145850000Y-60500000D03*
X145850000Y-63600000D03*
X144350000Y-63600000D03*
D15*
X116600000Y-70800000D03*
D28*
X122860000Y-71616000D03*
X122860000Y-69584000D03*
D29*
X124130000Y-69965000D03*
X125400000Y-69965000D03*
X126670000Y-69965000D03*
X124130000Y-71235000D03*
X126670000Y-71235000D03*
X125400000Y-71235000D03*
D28*
X127940000Y-70600000D03*
D25*
X129950000Y-64800000D03*
X129950000Y-60400000D03*
D26*
X127750000Y-57350000D03*
X123550000Y-57350000D03*
X127750000Y-67650000D03*
D27*
X128075000Y-63900000D03*
X128075000Y-63250000D03*
X128075000Y-61300000D03*
X128075000Y-61950000D03*
X128075000Y-62600000D03*
D26*
X123550000Y-67650000D03*
D12*
X131900000Y-67650000D03*
X130400000Y-67650000D03*
D15*
X123700000Y-54600000D03*
D16*
X116433000Y-65394000D03*
X116433000Y-62600000D03*
X116433000Y-59806000D03*
X116433000Y-57012000D03*
X116433000Y-68188000D03*
D21*
X109001660Y-58101140D03*
X109001660Y-56600000D03*
X109001660Y-55098860D03*
D22*
X106050180Y-56600000D03*
D10*
G36*
X107474650Y-55549240D02*
X108323950Y-56049620D01*
X108323950Y-57150380D01*
X107474650Y-57650760D01*
X107474650Y-55549240D01*
X107474650Y-55549240D01*
G37*
D18*
X114100000Y-71600000D03*
X114100000Y-70100000D03*
D20*
X111750000Y-55000000D03*
X111750000Y-57000000D03*
X111750000Y-58650000D03*
X111750000Y-60650000D03*
D15*
X116100000Y-54100000D03*
D19*
X112500000Y-71450000D03*
X112500000Y-69950000D03*
D17*
X111750000Y-62150000D03*
X111750000Y-64050000D03*
D23*
X108650000Y-60800000D03*
X108650000Y-64900000D03*
D24*
X105200000Y-67495000D03*
X105200000Y-68765000D03*
X105200000Y-70035000D03*
X105200000Y-71305000D03*
X110600000Y-71305000D03*
X110600000Y-70035000D03*
X110600000Y-68765000D03*
X110600000Y-67495000D03*
D12*
X104250000Y-60500000D03*
X105750000Y-60500000D03*
X105750000Y-63600000D03*
X104250000Y-63600000D03*
X105750000Y-65150000D03*
X104250000Y-65150000D03*
X104250000Y-62050000D03*
X105750000Y-62050000D03*
D20*
X101200000Y-69300000D03*
X101200000Y-71300000D03*
D19*
X102950000Y-69900000D03*
X102950000Y-71400000D03*
D18*
X94300000Y-70050000D03*
X94300000Y-71550000D03*
X92700000Y-71550000D03*
X92700000Y-70050000D03*
D19*
X99450000Y-69900000D03*
X99450000Y-71400000D03*
D18*
X95900000Y-71550000D03*
X95900000Y-70050000D03*
D13*
X101800000Y-65550000D03*
X101800000Y-65050000D03*
X101800000Y-64550000D03*
X101800000Y-64050000D03*
X101800000Y-63550000D03*
X101800000Y-63050000D03*
X101800000Y-62550000D03*
X101800000Y-62050000D03*
X101800000Y-61550000D03*
X101800000Y-61050000D03*
X101800000Y-60550000D03*
X101800000Y-60050000D03*
D14*
X100200000Y-58450000D03*
X99700000Y-58450000D03*
X99200000Y-58450000D03*
X98700000Y-58450000D03*
X98200000Y-58450000D03*
X97700000Y-58450000D03*
X97200000Y-58450000D03*
X96700000Y-58450000D03*
X96200000Y-58450000D03*
X95700000Y-58450000D03*
X95200000Y-58450000D03*
X94700000Y-58450000D03*
D13*
X93100000Y-60050000D03*
X93100000Y-60550000D03*
X93100000Y-61050000D03*
X93100000Y-61550000D03*
X93100000Y-62050000D03*
X93100000Y-62550000D03*
X93100000Y-63050000D03*
X93100000Y-63550000D03*
X93100000Y-64050000D03*
X93100000Y-64550000D03*
X93100000Y-65050000D03*
X93100000Y-65550000D03*
D14*
X94700000Y-67150000D03*
X95200000Y-67150000D03*
X95700000Y-67150000D03*
X96200000Y-67150000D03*
X96700000Y-67150000D03*
X97200000Y-67150000D03*
X97700000Y-67150000D03*
X98200000Y-67150000D03*
X98700000Y-67150000D03*
X99200000Y-67150000D03*
X99700000Y-67150000D03*
X100200000Y-67150000D03*
D17*
X97700000Y-71450000D03*
X97700000Y-69550000D03*
D18*
X98850000Y-54500000D03*
X98850000Y-56000000D03*
D11*
X97250000Y-54600700D03*
X97250000Y-56099300D03*
X100450000Y-54600700D03*
X100450000Y-56099300D03*
D19*
X92500000Y-56150000D03*
X92500000Y-54650000D03*
D11*
X94050000Y-54600700D03*
X94050000Y-56099300D03*
D18*
X102050000Y-54500000D03*
X102050000Y-56000000D03*
X95700000Y-54500000D03*
X95700000Y-56000000D03*
D20*
X191950000Y-58650000D03*
X191950000Y-60650000D03*
D12*
X184450000Y-60500000D03*
X185950000Y-60500000D03*
D21*
X189201660Y-58101140D03*
X189201660Y-56600000D03*
X189201660Y-55098860D03*
D22*
X186250180Y-56600000D03*
D10*
G36*
X187674650Y-55549240D02*
X188523950Y-56049620D01*
X188523950Y-57150380D01*
X187674650Y-57650760D01*
X187674650Y-55549240D01*
X187674650Y-55549240D01*
G37*
D20*
X191950000Y-55000000D03*
X191950000Y-57000000D03*
D12*
X184450000Y-62050000D03*
X185950000Y-62050000D03*
X185950000Y-65150000D03*
X184450000Y-65150000D03*
D23*
X188850000Y-60800000D03*
X188850000Y-64900000D03*
D24*
X185400000Y-67495000D03*
X185400000Y-68765000D03*
X185400000Y-70035000D03*
X185400000Y-71305000D03*
X190800000Y-71305000D03*
X190800000Y-70035000D03*
X190800000Y-68765000D03*
X190800000Y-67495000D03*
D17*
X191950000Y-62150000D03*
X191950000Y-64050000D03*
D12*
X185950000Y-63600000D03*
X184450000Y-63600000D03*
D18*
X172900000Y-71550000D03*
X172900000Y-70050000D03*
D19*
X183150000Y-69900000D03*
X183150000Y-71400000D03*
D17*
X177900000Y-71450000D03*
X177900000Y-69550000D03*
D20*
X181400000Y-69300000D03*
X181400000Y-71300000D03*
D19*
X179650000Y-69900000D03*
X179650000Y-71400000D03*
D18*
X176100000Y-71550000D03*
X176100000Y-70050000D03*
X174500000Y-70050000D03*
X174500000Y-71550000D03*
D25*
X170050000Y-64800000D03*
X170050000Y-60400000D03*
D26*
X167850000Y-57350000D03*
X163650000Y-57350000D03*
X167850000Y-67650000D03*
D27*
X168175000Y-63900000D03*
X168175000Y-63250000D03*
X168175000Y-61300000D03*
X168175000Y-61950000D03*
X168175000Y-62600000D03*
D26*
X163650000Y-67650000D03*
D15*
X156700000Y-70800000D03*
D18*
X154200000Y-71600000D03*
X154200000Y-70100000D03*
D28*
X162960000Y-71616000D03*
X162960000Y-69584000D03*
D29*
X164230000Y-69965000D03*
X165500000Y-69965000D03*
X166770000Y-69965000D03*
X164230000Y-71235000D03*
X166770000Y-71235000D03*
X165500000Y-71235000D03*
D28*
X168040000Y-70600000D03*
D12*
X172000000Y-67650000D03*
X170500000Y-67650000D03*
D15*
X156200000Y-54100000D03*
X163800000Y-54600000D03*
D16*
X156533000Y-65394000D03*
X156533000Y-62600000D03*
X156533000Y-59806000D03*
X156533000Y-57012000D03*
X156533000Y-68188000D03*
D13*
X182000000Y-65550000D03*
X182000000Y-65050000D03*
X182000000Y-64550000D03*
X182000000Y-64050000D03*
X182000000Y-63550000D03*
X182000000Y-63050000D03*
X182000000Y-62550000D03*
X182000000Y-62050000D03*
X182000000Y-61550000D03*
X182000000Y-61050000D03*
X182000000Y-60550000D03*
X182000000Y-60050000D03*
D14*
X180400000Y-58450000D03*
X179900000Y-58450000D03*
X179400000Y-58450000D03*
X178900000Y-58450000D03*
X178400000Y-58450000D03*
X177900000Y-58450000D03*
X177400000Y-58450000D03*
X176900000Y-58450000D03*
X176400000Y-58450000D03*
X175900000Y-58450000D03*
X175400000Y-58450000D03*
X174900000Y-58450000D03*
D13*
X173300000Y-60050000D03*
X173300000Y-60550000D03*
X173300000Y-61050000D03*
X173300000Y-61550000D03*
X173300000Y-62050000D03*
X173300000Y-62550000D03*
X173300000Y-63050000D03*
X173300000Y-63550000D03*
X173300000Y-64050000D03*
X173300000Y-64550000D03*
X173300000Y-65050000D03*
X173300000Y-65550000D03*
D14*
X174900000Y-67150000D03*
X175400000Y-67150000D03*
X175900000Y-67150000D03*
X176400000Y-67150000D03*
X176900000Y-67150000D03*
X177400000Y-67150000D03*
X177900000Y-67150000D03*
X178400000Y-67150000D03*
X178900000Y-67150000D03*
X179400000Y-67150000D03*
X179900000Y-67150000D03*
X180400000Y-67150000D03*
D11*
X180650000Y-54600700D03*
X180650000Y-56099300D03*
D18*
X179050000Y-54500000D03*
X179050000Y-56000000D03*
D19*
X172700000Y-56150000D03*
X172700000Y-54650000D03*
D18*
X182250000Y-54500000D03*
X182250000Y-56000000D03*
D11*
X177450000Y-54600700D03*
X177450000Y-56099300D03*
D18*
X175900000Y-54500000D03*
X175900000Y-56000000D03*
D11*
X174250000Y-54600700D03*
X174250000Y-56099300D03*
D15*
X196800000Y-70800000D03*
D16*
X196633000Y-65394000D03*
X196633000Y-62600000D03*
X196633000Y-59806000D03*
X196633000Y-57012000D03*
X196633000Y-68188000D03*
D15*
X196300000Y-54100000D03*
D19*
X192700000Y-71450000D03*
X192700000Y-69950000D03*
D18*
X194300000Y-71600000D03*
X194300000Y-70100000D03*
D15*
X83600000Y-54600000D03*
D16*
X76333000Y-65394000D03*
X76333000Y-62600000D03*
X76333000Y-59806000D03*
X76333000Y-57012000D03*
X76333000Y-68188000D03*
D25*
X89850000Y-64800000D03*
X89850000Y-60400000D03*
D26*
X87650000Y-57350000D03*
X83450000Y-57350000D03*
X87650000Y-67650000D03*
D27*
X87975000Y-63900000D03*
X87975000Y-63250000D03*
X87975000Y-61300000D03*
X87975000Y-61950000D03*
X87975000Y-62600000D03*
D26*
X83450000Y-67650000D03*
D12*
X91800000Y-67650000D03*
X90300000Y-67650000D03*
D18*
X74000000Y-71600000D03*
X74000000Y-70100000D03*
D15*
X76500000Y-70800000D03*
D28*
X82760000Y-71616000D03*
X82760000Y-69584000D03*
D29*
X84030000Y-69965000D03*
X85300000Y-69965000D03*
X86570000Y-69965000D03*
X84030000Y-71235000D03*
X86570000Y-71235000D03*
X85300000Y-71235000D03*
D28*
X87840000Y-70600000D03*
D12*
X64150000Y-62050000D03*
X65650000Y-62050000D03*
X64150000Y-60500000D03*
X65650000Y-60500000D03*
D23*
X68550000Y-60800000D03*
X68550000Y-64900000D03*
D17*
X71650000Y-62150000D03*
X71650000Y-64050000D03*
D19*
X62850000Y-69900000D03*
X62850000Y-71400000D03*
X72400000Y-71450000D03*
X72400000Y-69950000D03*
D12*
X65650000Y-63600000D03*
X64150000Y-63600000D03*
D24*
X65100000Y-67495000D03*
X65100000Y-68765000D03*
X65100000Y-70035000D03*
X65100000Y-71305000D03*
X70500000Y-71305000D03*
X70500000Y-70035000D03*
X70500000Y-68765000D03*
X70500000Y-67495000D03*
D12*
X65650000Y-65150000D03*
X64150000Y-65150000D03*
D20*
X71650000Y-55000000D03*
X71650000Y-57000000D03*
X71650000Y-58650000D03*
X71650000Y-60650000D03*
D15*
X76000000Y-54100000D03*
D21*
X68901660Y-58101140D03*
X68901660Y-56600000D03*
X68901660Y-55098860D03*
D22*
X65950180Y-56600000D03*
D10*
G36*
X67374650Y-55549240D02*
X68223950Y-56049620D01*
X68223950Y-57150380D01*
X67374650Y-57650760D01*
X67374650Y-55549240D01*
X67374650Y-55549240D01*
G37*
D11*
X53950000Y-54600700D03*
X53950000Y-56099300D03*
D18*
X55600000Y-54500000D03*
X55600000Y-56000000D03*
D13*
X61700000Y-65550000D03*
X61700000Y-65050000D03*
X61700000Y-64550000D03*
X61700000Y-64050000D03*
X61700000Y-63550000D03*
X61700000Y-63050000D03*
X61700000Y-62550000D03*
X61700000Y-62050000D03*
X61700000Y-61550000D03*
X61700000Y-61050000D03*
X61700000Y-60550000D03*
X61700000Y-60050000D03*
D14*
X60100000Y-58450000D03*
X59600000Y-58450000D03*
X59100000Y-58450000D03*
X58600000Y-58450000D03*
X58100000Y-58450000D03*
X57600000Y-58450000D03*
X57100000Y-58450000D03*
X56600000Y-58450000D03*
X56100000Y-58450000D03*
X55600000Y-58450000D03*
X55100000Y-58450000D03*
X54600000Y-58450000D03*
D13*
X53000000Y-60050000D03*
X53000000Y-60550000D03*
X53000000Y-61050000D03*
X53000000Y-61550000D03*
X53000000Y-62050000D03*
X53000000Y-62550000D03*
X53000000Y-63050000D03*
X53000000Y-63550000D03*
X53000000Y-64050000D03*
X53000000Y-64550000D03*
X53000000Y-65050000D03*
X53000000Y-65550000D03*
D14*
X54600000Y-67150000D03*
X55100000Y-67150000D03*
X55600000Y-67150000D03*
X56100000Y-67150000D03*
X56600000Y-67150000D03*
X57100000Y-67150000D03*
X57600000Y-67150000D03*
X58100000Y-67150000D03*
X58600000Y-67150000D03*
X59100000Y-67150000D03*
X59600000Y-67150000D03*
X60100000Y-67150000D03*
D19*
X52400000Y-56150000D03*
X52400000Y-54650000D03*
D17*
X57600000Y-71450000D03*
X57600000Y-69550000D03*
D20*
X61100000Y-69300000D03*
X61100000Y-71300000D03*
D18*
X54200000Y-70050000D03*
X54200000Y-71550000D03*
X55800000Y-71550000D03*
X55800000Y-70050000D03*
D19*
X59350000Y-69900000D03*
X59350000Y-71400000D03*
D18*
X61950000Y-54500000D03*
X61950000Y-56000000D03*
X58750000Y-54500000D03*
X58750000Y-56000000D03*
D11*
X60350000Y-54600700D03*
X60350000Y-56099300D03*
X57150000Y-54600700D03*
X57150000Y-56099300D03*
D28*
X42660000Y-71616000D03*
X42660000Y-69584000D03*
D29*
X43930000Y-69965000D03*
X45200000Y-69965000D03*
X46470000Y-69965000D03*
X43930000Y-71235000D03*
X46470000Y-71235000D03*
X45200000Y-71235000D03*
D28*
X47740000Y-70600000D03*
D18*
X52600000Y-71550000D03*
X52600000Y-70050000D03*
D15*
X43500000Y-54600000D03*
D12*
X51700000Y-67650000D03*
X50200000Y-67650000D03*
D25*
X49750000Y-64800000D03*
X49750000Y-60400000D03*
D26*
X47550000Y-57350000D03*
X43350000Y-57350000D03*
X47550000Y-67650000D03*
D27*
X47875000Y-63900000D03*
X47875000Y-63250000D03*
X47875000Y-61300000D03*
X47875000Y-61950000D03*
X47875000Y-62600000D03*
D26*
X43350000Y-67650000D03*
D19*
X179650000Y-47500000D03*
X179650000Y-49000000D03*
D18*
X174500000Y-47650000D03*
X174500000Y-49150000D03*
D17*
X177900000Y-49050000D03*
X177900000Y-47150000D03*
D18*
X176100000Y-49150000D03*
X176100000Y-47650000D03*
D20*
X181400000Y-46900000D03*
X181400000Y-48900000D03*
D21*
X189201660Y-35701140D03*
X189201660Y-34200000D03*
X189201660Y-32698860D03*
D22*
X186250180Y-34200000D03*
D10*
G36*
X187674650Y-33149240D02*
X188523950Y-33649620D01*
X188523950Y-34750380D01*
X187674650Y-35250760D01*
X187674650Y-33149240D01*
X187674650Y-33149240D01*
G37*
D12*
X185950000Y-42750000D03*
X184450000Y-42750000D03*
D23*
X188850000Y-38400000D03*
X188850000Y-42500000D03*
D12*
X184450000Y-39650000D03*
X185950000Y-39650000D03*
X184450000Y-38100000D03*
X185950000Y-38100000D03*
X185950000Y-41200000D03*
X184450000Y-41200000D03*
D24*
X185400000Y-45095000D03*
X185400000Y-46365000D03*
X185400000Y-47635000D03*
X185400000Y-48905000D03*
X190800000Y-48905000D03*
X190800000Y-47635000D03*
X190800000Y-46365000D03*
X190800000Y-45095000D03*
D19*
X183150000Y-47500000D03*
X183150000Y-49000000D03*
D11*
X177450000Y-32200700D03*
X177450000Y-33699300D03*
D13*
X182000000Y-43150000D03*
X182000000Y-42650000D03*
X182000000Y-42150000D03*
X182000000Y-41650000D03*
X182000000Y-41150000D03*
X182000000Y-40650000D03*
X182000000Y-40150000D03*
X182000000Y-39650000D03*
X182000000Y-39150000D03*
X182000000Y-38650000D03*
X182000000Y-38150000D03*
X182000000Y-37650000D03*
D14*
X180400000Y-36050000D03*
X179900000Y-36050000D03*
X179400000Y-36050000D03*
X178900000Y-36050000D03*
X178400000Y-36050000D03*
X177900000Y-36050000D03*
X177400000Y-36050000D03*
X176900000Y-36050000D03*
X176400000Y-36050000D03*
X175900000Y-36050000D03*
X175400000Y-36050000D03*
X174900000Y-36050000D03*
D13*
X173300000Y-37650000D03*
X173300000Y-38150000D03*
X173300000Y-38650000D03*
X173300000Y-39150000D03*
X173300000Y-39650000D03*
X173300000Y-40150000D03*
X173300000Y-40650000D03*
X173300000Y-41150000D03*
X173300000Y-41650000D03*
X173300000Y-42150000D03*
X173300000Y-42650000D03*
X173300000Y-43150000D03*
D14*
X174900000Y-44750000D03*
X175400000Y-44750000D03*
X175900000Y-44750000D03*
X176400000Y-44750000D03*
X176900000Y-44750000D03*
X177400000Y-44750000D03*
X177900000Y-44750000D03*
X178400000Y-44750000D03*
X178900000Y-44750000D03*
X179400000Y-44750000D03*
X179900000Y-44750000D03*
X180400000Y-44750000D03*
D18*
X175900000Y-32100000D03*
X175900000Y-33600000D03*
X179050000Y-32100000D03*
X179050000Y-33600000D03*
D11*
X180650000Y-32200700D03*
X180650000Y-33699300D03*
X174250000Y-32200700D03*
X174250000Y-33699300D03*
D18*
X182250000Y-32100000D03*
X182250000Y-33600000D03*
D15*
X196300000Y-31700000D03*
D20*
X191950000Y-32600000D03*
X191950000Y-34600000D03*
D17*
X191950000Y-39750000D03*
X191950000Y-41650000D03*
D20*
X191950000Y-36250000D03*
X191950000Y-38250000D03*
D15*
X196800000Y-48400000D03*
D16*
X196633000Y-42994000D03*
X196633000Y-40200000D03*
X196633000Y-37406000D03*
X196633000Y-34612000D03*
X196633000Y-45788000D03*
D18*
X194300000Y-49200000D03*
X194300000Y-47700000D03*
D19*
X192700000Y-49050000D03*
X192700000Y-47550000D03*
D15*
X163800000Y-32200000D03*
D28*
X162960000Y-49216000D03*
X162960000Y-47184000D03*
D29*
X164230000Y-47565000D03*
X165500000Y-47565000D03*
X166770000Y-47565000D03*
X164230000Y-48835000D03*
X166770000Y-48835000D03*
X165500000Y-48835000D03*
D28*
X168040000Y-48200000D03*
D12*
X172000000Y-45250000D03*
X170500000Y-45250000D03*
D18*
X172900000Y-49150000D03*
X172900000Y-47650000D03*
D25*
X170050000Y-42400000D03*
X170050000Y-38000000D03*
D26*
X167850000Y-34950000D03*
X163650000Y-34950000D03*
X167850000Y-45250000D03*
D27*
X168175000Y-41500000D03*
X168175000Y-40850000D03*
X168175000Y-38900000D03*
X168175000Y-39550000D03*
X168175000Y-40200000D03*
D26*
X163650000Y-45250000D03*
D19*
X172700000Y-33750000D03*
X172700000Y-32250000D03*
X139550000Y-47500000D03*
X139550000Y-49000000D03*
D18*
X134400000Y-47650000D03*
X134400000Y-49150000D03*
D17*
X137800000Y-49050000D03*
X137800000Y-47150000D03*
D18*
X136000000Y-49150000D03*
X136000000Y-47650000D03*
D20*
X141300000Y-46900000D03*
X141300000Y-48900000D03*
D21*
X149101660Y-35701140D03*
X149101660Y-34200000D03*
X149101660Y-32698860D03*
D22*
X146150180Y-34200000D03*
D10*
G36*
X147574650Y-33149240D02*
X148423950Y-33649620D01*
X148423950Y-34750380D01*
X147574650Y-35250760D01*
X147574650Y-33149240D01*
X147574650Y-33149240D01*
G37*
D12*
X145850000Y-42750000D03*
X144350000Y-42750000D03*
D23*
X148750000Y-38400000D03*
X148750000Y-42500000D03*
D12*
X144350000Y-39650000D03*
X145850000Y-39650000D03*
X144350000Y-38100000D03*
X145850000Y-38100000D03*
X145850000Y-41200000D03*
X144350000Y-41200000D03*
D24*
X145300000Y-45095000D03*
X145300000Y-46365000D03*
X145300000Y-47635000D03*
X145300000Y-48905000D03*
X150700000Y-48905000D03*
X150700000Y-47635000D03*
X150700000Y-46365000D03*
X150700000Y-45095000D03*
D19*
X143050000Y-47500000D03*
X143050000Y-49000000D03*
D11*
X137350000Y-32200700D03*
X137350000Y-33699300D03*
D13*
X141900000Y-43150000D03*
X141900000Y-42650000D03*
X141900000Y-42150000D03*
X141900000Y-41650000D03*
X141900000Y-41150000D03*
X141900000Y-40650000D03*
X141900000Y-40150000D03*
X141900000Y-39650000D03*
X141900000Y-39150000D03*
X141900000Y-38650000D03*
X141900000Y-38150000D03*
X141900000Y-37650000D03*
D14*
X140300000Y-36050000D03*
X139800000Y-36050000D03*
X139300000Y-36050000D03*
X138800000Y-36050000D03*
X138300000Y-36050000D03*
X137800000Y-36050000D03*
X137300000Y-36050000D03*
X136800000Y-36050000D03*
X136300000Y-36050000D03*
X135800000Y-36050000D03*
X135300000Y-36050000D03*
X134800000Y-36050000D03*
D13*
X133200000Y-37650000D03*
X133200000Y-38150000D03*
X133200000Y-38650000D03*
X133200000Y-39150000D03*
X133200000Y-39650000D03*
X133200000Y-40150000D03*
X133200000Y-40650000D03*
X133200000Y-41150000D03*
X133200000Y-41650000D03*
X133200000Y-42150000D03*
X133200000Y-42650000D03*
X133200000Y-43150000D03*
D14*
X134800000Y-44750000D03*
X135300000Y-44750000D03*
X135800000Y-44750000D03*
X136300000Y-44750000D03*
X136800000Y-44750000D03*
X137300000Y-44750000D03*
X137800000Y-44750000D03*
X138300000Y-44750000D03*
X138800000Y-44750000D03*
X139300000Y-44750000D03*
X139800000Y-44750000D03*
X140300000Y-44750000D03*
D18*
X135800000Y-32100000D03*
X135800000Y-33600000D03*
X138950000Y-32100000D03*
X138950000Y-33600000D03*
D11*
X140550000Y-32200700D03*
X140550000Y-33699300D03*
X134150000Y-32200700D03*
X134150000Y-33699300D03*
D18*
X142150000Y-32100000D03*
X142150000Y-33600000D03*
D15*
X156200000Y-31700000D03*
D20*
X151850000Y-32600000D03*
X151850000Y-34600000D03*
D17*
X151850000Y-39750000D03*
X151850000Y-41650000D03*
D20*
X151850000Y-36250000D03*
X151850000Y-38250000D03*
D15*
X156700000Y-48400000D03*
D16*
X156533000Y-42994000D03*
X156533000Y-40200000D03*
X156533000Y-37406000D03*
X156533000Y-34612000D03*
X156533000Y-45788000D03*
D18*
X154200000Y-49200000D03*
X154200000Y-47700000D03*
D19*
X152600000Y-49050000D03*
X152600000Y-47550000D03*
D15*
X123700000Y-32200000D03*
D28*
X122860000Y-49216000D03*
X122860000Y-47184000D03*
D29*
X124130000Y-47565000D03*
X125400000Y-47565000D03*
X126670000Y-47565000D03*
X124130000Y-48835000D03*
X126670000Y-48835000D03*
X125400000Y-48835000D03*
D28*
X127940000Y-48200000D03*
D12*
X131900000Y-45250000D03*
X130400000Y-45250000D03*
D18*
X132800000Y-49150000D03*
X132800000Y-47650000D03*
D25*
X129950000Y-42400000D03*
X129950000Y-38000000D03*
D26*
X127750000Y-34950000D03*
X123550000Y-34950000D03*
X127750000Y-45250000D03*
D27*
X128075000Y-41500000D03*
X128075000Y-40850000D03*
X128075000Y-38900000D03*
X128075000Y-39550000D03*
X128075000Y-40200000D03*
D26*
X123550000Y-45250000D03*
D19*
X132600000Y-33750000D03*
X132600000Y-32250000D03*
X99450000Y-47500000D03*
X99450000Y-49000000D03*
D18*
X94300000Y-47650000D03*
X94300000Y-49150000D03*
D17*
X97700000Y-49050000D03*
X97700000Y-47150000D03*
D18*
X95900000Y-49150000D03*
X95900000Y-47650000D03*
D20*
X101200000Y-46900000D03*
X101200000Y-48900000D03*
D21*
X109001660Y-35701140D03*
X109001660Y-34200000D03*
X109001660Y-32698860D03*
D22*
X106050180Y-34200000D03*
D10*
G36*
X107474650Y-33149240D02*
X108323950Y-33649620D01*
X108323950Y-34750380D01*
X107474650Y-35250760D01*
X107474650Y-33149240D01*
X107474650Y-33149240D01*
G37*
D12*
X105750000Y-42750000D03*
X104250000Y-42750000D03*
D23*
X108650000Y-38400000D03*
X108650000Y-42500000D03*
D12*
X104250000Y-39650000D03*
X105750000Y-39650000D03*
X104250000Y-38100000D03*
X105750000Y-38100000D03*
X105750000Y-41200000D03*
X104250000Y-41200000D03*
D24*
X105200000Y-45095000D03*
X105200000Y-46365000D03*
X105200000Y-47635000D03*
X105200000Y-48905000D03*
X110600000Y-48905000D03*
X110600000Y-47635000D03*
X110600000Y-46365000D03*
X110600000Y-45095000D03*
D19*
X102950000Y-47500000D03*
X102950000Y-49000000D03*
D11*
X97250000Y-32200700D03*
X97250000Y-33699300D03*
D13*
X101800000Y-43150000D03*
X101800000Y-42650000D03*
X101800000Y-42150000D03*
X101800000Y-41650000D03*
X101800000Y-41150000D03*
X101800000Y-40650000D03*
X101800000Y-40150000D03*
X101800000Y-39650000D03*
X101800000Y-39150000D03*
X101800000Y-38650000D03*
X101800000Y-38150000D03*
X101800000Y-37650000D03*
D14*
X100200000Y-36050000D03*
X99700000Y-36050000D03*
X99200000Y-36050000D03*
X98700000Y-36050000D03*
X98200000Y-36050000D03*
X97700000Y-36050000D03*
X97200000Y-36050000D03*
X96700000Y-36050000D03*
X96200000Y-36050000D03*
X95700000Y-36050000D03*
X95200000Y-36050000D03*
X94700000Y-36050000D03*
D13*
X93100000Y-37650000D03*
X93100000Y-38150000D03*
X93100000Y-38650000D03*
X93100000Y-39150000D03*
X93100000Y-39650000D03*
X93100000Y-40150000D03*
X93100000Y-40650000D03*
X93100000Y-41150000D03*
X93100000Y-41650000D03*
X93100000Y-42150000D03*
X93100000Y-42650000D03*
X93100000Y-43150000D03*
D14*
X94700000Y-44750000D03*
X95200000Y-44750000D03*
X95700000Y-44750000D03*
X96200000Y-44750000D03*
X96700000Y-44750000D03*
X97200000Y-44750000D03*
X97700000Y-44750000D03*
X98200000Y-44750000D03*
X98700000Y-44750000D03*
X99200000Y-44750000D03*
X99700000Y-44750000D03*
X100200000Y-44750000D03*
D18*
X95700000Y-32100000D03*
X95700000Y-33600000D03*
X98850000Y-32100000D03*
X98850000Y-33600000D03*
D11*
X100450000Y-32200700D03*
X100450000Y-33699300D03*
X94050000Y-32200700D03*
X94050000Y-33699300D03*
D18*
X102050000Y-32100000D03*
X102050000Y-33600000D03*
D15*
X116100000Y-31700000D03*
D20*
X111750000Y-32600000D03*
X111750000Y-34600000D03*
D17*
X111750000Y-39750000D03*
X111750000Y-41650000D03*
D20*
X111750000Y-36250000D03*
X111750000Y-38250000D03*
D15*
X116600000Y-48400000D03*
D16*
X116433000Y-42994000D03*
X116433000Y-40200000D03*
X116433000Y-37406000D03*
X116433000Y-34612000D03*
X116433000Y-45788000D03*
D18*
X114100000Y-49200000D03*
X114100000Y-47700000D03*
D19*
X112500000Y-49050000D03*
X112500000Y-47550000D03*
D15*
X83600000Y-32200000D03*
D28*
X82760000Y-49216000D03*
X82760000Y-47184000D03*
D29*
X84030000Y-47565000D03*
X85300000Y-47565000D03*
X86570000Y-47565000D03*
X84030000Y-48835000D03*
X86570000Y-48835000D03*
X85300000Y-48835000D03*
D28*
X87840000Y-48200000D03*
D12*
X91800000Y-45250000D03*
X90300000Y-45250000D03*
D18*
X92700000Y-49150000D03*
X92700000Y-47650000D03*
D25*
X89850000Y-42400000D03*
X89850000Y-38000000D03*
D26*
X87650000Y-34950000D03*
X83450000Y-34950000D03*
X87650000Y-45250000D03*
D27*
X87975000Y-41500000D03*
X87975000Y-40850000D03*
X87975000Y-38900000D03*
X87975000Y-39550000D03*
X87975000Y-40200000D03*
D26*
X83450000Y-45250000D03*
D19*
X92500000Y-33750000D03*
X92500000Y-32250000D03*
D23*
X68550000Y-38400000D03*
X68550000Y-42500000D03*
D13*
X61700000Y-43150000D03*
X61700000Y-42650000D03*
X61700000Y-42150000D03*
X61700000Y-41650000D03*
X61700000Y-41150000D03*
X61700000Y-40650000D03*
X61700000Y-40150000D03*
X61700000Y-39650000D03*
X61700000Y-39150000D03*
X61700000Y-38650000D03*
X61700000Y-38150000D03*
X61700000Y-37650000D03*
D14*
X60100000Y-36050000D03*
X59600000Y-36050000D03*
X59100000Y-36050000D03*
X58600000Y-36050000D03*
X58100000Y-36050000D03*
X57600000Y-36050000D03*
X57100000Y-36050000D03*
X56600000Y-36050000D03*
X56100000Y-36050000D03*
X55600000Y-36050000D03*
X55100000Y-36050000D03*
X54600000Y-36050000D03*
D13*
X53000000Y-37650000D03*
X53000000Y-38150000D03*
X53000000Y-38650000D03*
X53000000Y-39150000D03*
X53000000Y-39650000D03*
X53000000Y-40150000D03*
X53000000Y-40650000D03*
X53000000Y-41150000D03*
X53000000Y-41650000D03*
X53000000Y-42150000D03*
X53000000Y-42650000D03*
X53000000Y-43150000D03*
D14*
X54600000Y-44750000D03*
X55100000Y-44750000D03*
X55600000Y-44750000D03*
X56100000Y-44750000D03*
X56600000Y-44750000D03*
X57100000Y-44750000D03*
X57600000Y-44750000D03*
X58100000Y-44750000D03*
X58600000Y-44750000D03*
X59100000Y-44750000D03*
X59600000Y-44750000D03*
X60100000Y-44750000D03*
D18*
X74000000Y-49200000D03*
X74000000Y-47700000D03*
D19*
X59350000Y-47500000D03*
X59350000Y-49000000D03*
X72400000Y-49050000D03*
X72400000Y-47550000D03*
D17*
X57600000Y-49050000D03*
X57600000Y-47150000D03*
D25*
X49750000Y-42400000D03*
X49750000Y-38000000D03*
D26*
X47550000Y-34950000D03*
X43350000Y-34950000D03*
X47550000Y-45250000D03*
D27*
X47875000Y-41500000D03*
X47875000Y-40850000D03*
X47875000Y-38900000D03*
X47875000Y-39550000D03*
X47875000Y-40200000D03*
D26*
X43350000Y-45250000D03*
D12*
X65650000Y-42750000D03*
X64150000Y-42750000D03*
X65650000Y-41200000D03*
X64150000Y-41200000D03*
X64150000Y-38100000D03*
X65650000Y-38100000D03*
X51700000Y-45250000D03*
X50200000Y-45250000D03*
D19*
X52400000Y-33750000D03*
X52400000Y-32250000D03*
D20*
X61100000Y-46900000D03*
X61100000Y-48900000D03*
X71650000Y-36250000D03*
X71650000Y-38250000D03*
X71650000Y-32600000D03*
X71650000Y-34600000D03*
D19*
X62850000Y-47500000D03*
X62850000Y-49000000D03*
D11*
X60350000Y-32200700D03*
X60350000Y-33699300D03*
X57150000Y-32200700D03*
X57150000Y-33699300D03*
X53950000Y-32200700D03*
X53950000Y-33699300D03*
D18*
X52600000Y-49150000D03*
X52600000Y-47650000D03*
X54200000Y-47650000D03*
X54200000Y-49150000D03*
X55800000Y-49150000D03*
X55800000Y-47650000D03*
X61950000Y-32100000D03*
X61950000Y-33600000D03*
X58750000Y-32100000D03*
X58750000Y-33600000D03*
X55600000Y-32100000D03*
X55600000Y-33600000D03*
D21*
X68901660Y-35701140D03*
X68901660Y-34200000D03*
X68901660Y-32698860D03*
D22*
X65950180Y-34200000D03*
D10*
G36*
X67374650Y-33149240D02*
X68223950Y-33649620D01*
X68223950Y-34750380D01*
X67374650Y-35250760D01*
X67374650Y-33149240D01*
X67374650Y-33149240D01*
G37*
D24*
X65100000Y-45095000D03*
X65100000Y-46365000D03*
X65100000Y-47635000D03*
X65100000Y-48905000D03*
X70500000Y-48905000D03*
X70500000Y-47635000D03*
X70500000Y-46365000D03*
X70500000Y-45095000D03*
D28*
X42660000Y-49216000D03*
X42660000Y-47184000D03*
D29*
X43930000Y-47565000D03*
X45200000Y-47565000D03*
X46470000Y-47565000D03*
X43930000Y-48835000D03*
X46470000Y-48835000D03*
X45200000Y-48835000D03*
D28*
X47740000Y-48200000D03*
D15*
X43500000Y-32200000D03*
X76500000Y-48400000D03*
X76000000Y-31700000D03*
D12*
X64150000Y-39650000D03*
X65650000Y-39650000D03*
D17*
X71650000Y-39750000D03*
X71650000Y-41650000D03*
D16*
X76333000Y-42994000D03*
X76333000Y-40200000D03*
X76333000Y-37406000D03*
X76333000Y-34612000D03*
X76333000Y-45788000D03*
M02*
