M48
METRIC,TZ
T1C0.991
%
G90
G05
T1
X42.66Y-47.184
X42.66Y-49.216
X42.66Y-69.584
X42.66Y-71.616
X42.66Y-91.984
X42.66Y-94.016
X42.66Y-114.384
X42.66Y-116.416
X42.66Y-136.784
X42.66Y-138.816
X42.66Y-159.184
X42.66Y-161.216
X47.74Y-48.2
X47.74Y-70.6
X47.74Y-93.
X47.74Y-115.4
X47.74Y-137.8
X47.74Y-160.2
X82.76Y-47.184
X82.76Y-49.216
X82.76Y-69.584
X82.76Y-71.616
X82.76Y-91.984
X82.76Y-94.016
X82.76Y-114.384
X82.76Y-116.416
X82.76Y-136.784
X82.76Y-138.816
X82.76Y-159.184
X82.76Y-161.216
X87.84Y-48.2
X87.84Y-70.6
X87.84Y-93.
X87.84Y-115.4
X87.84Y-137.8
X87.84Y-160.2
X122.86Y-47.184
X122.86Y-49.216
X122.86Y-69.584
X122.86Y-71.616
X122.86Y-91.984
X122.86Y-94.016
X122.86Y-114.384
X122.86Y-116.416
X122.86Y-136.784
X122.86Y-138.816
X122.86Y-159.184
X122.86Y-161.216
X127.94Y-48.2
X127.94Y-70.6
X127.94Y-93.
X127.94Y-115.4
X127.94Y-137.8
X127.94Y-160.2
X162.96Y-47.184
X162.96Y-49.216
X162.96Y-69.584
X162.96Y-71.616
X162.96Y-91.984
X162.96Y-94.016
X162.96Y-114.384
X162.96Y-116.416
X162.96Y-136.784
X162.96Y-138.816
X162.96Y-159.184
X162.96Y-161.216
X168.04Y-48.2
X168.04Y-70.6
X168.04Y-93.
X168.04Y-115.4
X168.04Y-137.8
X168.04Y-160.2
T0
M30
