M48
METRIC,TZ
T1C0.400
%
G90
G05
T1
X44.4Y-46.7
X44.4Y-69.1
X44.4Y-91.5
X44.4Y-113.9
X44.4Y-136.3
X44.4Y-158.7
X45.2Y-45.25
X45.2Y-67.65
X45.2Y-90.05
X45.2Y-112.45
X45.2Y-134.85
X45.2Y-157.25
X45.55Y-34.95
X45.55Y-57.35
X45.55Y-79.75
X45.55Y-102.15
X45.55Y-124.55
X45.55Y-146.95
X47.9Y-42.6
X47.9Y-65.
X47.9Y-87.4
X47.9Y-109.8
X47.9Y-132.2
X47.9Y-154.6
X48.3Y-37.7
X48.3Y-60.1
X48.3Y-82.5
X48.3Y-104.9
X48.3Y-127.3
X48.3Y-149.7
X49.35Y-45.25
X49.35Y-67.65
X49.35Y-90.05
X49.35Y-112.45
X49.35Y-134.85
X49.35Y-157.25
X49.8Y-44.3
X49.8Y-66.7
X49.8Y-89.1
X49.8Y-111.5
X49.8Y-133.9
X49.8Y-156.3
X50.Y-47.4
X50.Y-69.8
X50.Y-92.2
X50.Y-114.6
X50.Y-137.
X50.Y-159.4
X51.Y-37.05
X51.Y-59.45
X51.Y-81.85
X51.Y-104.25
X51.Y-126.65
X51.Y-149.05
X51.515Y-49.265
X51.515Y-71.665
X51.515Y-94.065
X51.515Y-116.465
X51.515Y-138.865
X51.515Y-161.265
X51.515Y-39.703
X51.515Y-62.103
X51.515Y-84.503
X51.515Y-106.903
X51.515Y-129.303
X51.515Y-151.703
X51.605Y-32.249
X51.605Y-54.649
X51.605Y-77.049
X51.605Y-99.449
X51.605Y-121.849
X51.605Y-144.249
X52.202Y-37.03
X52.202Y-59.43
X52.202Y-81.83
X52.202Y-104.23
X52.202Y-126.63
X52.202Y-149.03
X52.763Y-44.401
X52.763Y-66.801
X52.763Y-89.201
X52.763Y-111.601
X52.763Y-134.001
X52.763Y-156.401
X53.043Y-34.819
X53.043Y-57.219
X53.043Y-79.619
X53.043Y-102.019
X53.043Y-124.419
X53.043Y-146.819
X53.45Y-48.4
X53.45Y-70.8
X53.45Y-93.2
X53.45Y-115.6
X53.45Y-138.
X53.45Y-160.4
X54.378Y-39.412
X54.378Y-61.812
X54.378Y-84.212
X54.378Y-106.612
X54.378Y-129.012
X54.378Y-151.412
X54.5Y-43.225
X54.5Y-65.625
X54.5Y-88.025
X54.5Y-110.425
X54.5Y-132.825
X54.5Y-155.225
X54.95Y-48.4
X54.95Y-70.8
X54.95Y-93.2
X54.95Y-115.6
X54.95Y-138.
X54.95Y-160.4
X55.25Y-38.834
X55.25Y-61.234
X55.25Y-83.634
X55.25Y-106.034
X55.25Y-128.434
X55.25Y-150.834
X55.5Y-40.2
X55.5Y-41.7
X55.5Y-62.6
X55.5Y-64.1
X55.5Y-85.
X55.5Y-86.5
X55.5Y-107.4
X55.5Y-108.9
X55.5Y-129.8
X55.5Y-131.3
X55.5Y-152.2
X55.5Y-153.7
X55.55Y-34.85
X55.55Y-57.25
X55.55Y-79.65
X55.55Y-102.05
X55.55Y-124.45
X55.55Y-146.85
X55.784Y-48.378
X55.784Y-70.778
X55.784Y-93.178
X55.784Y-115.578
X55.784Y-137.978
X55.784Y-160.378
X56.169Y-42.64
X56.169Y-65.04
X56.169Y-87.44
X56.169Y-109.84
X56.169Y-132.24
X56.169Y-154.64
X58.462Y-43.413
X58.462Y-65.813
X58.462Y-88.213
X58.462Y-110.613
X58.462Y-133.013
X58.462Y-155.413
X58.8Y-46.25
X58.8Y-68.65
X58.8Y-91.05
X58.8Y-113.45
X58.8Y-135.85
X58.8Y-158.25
X59.Y-41.95
X59.Y-64.35
X59.Y-86.75
X59.Y-109.15
X59.Y-131.55
X59.Y-153.95
X59.239Y-43.413
X59.239Y-65.813
X59.239Y-88.213
X59.239Y-110.613
X59.239Y-133.013
X59.239Y-155.413
X60.107Y-48.984
X60.107Y-71.384
X60.107Y-93.784
X60.107Y-116.184
X60.107Y-138.584
X60.107Y-160.984
X60.25Y-40.7
X60.25Y-63.1
X60.25Y-85.5
X60.25Y-107.9
X60.25Y-130.3
X60.25Y-152.7
X60.35Y-39.65
X60.35Y-62.05
X60.35Y-84.45
X60.35Y-106.85
X60.35Y-129.25
X60.35Y-151.65
X61.695Y-45.015
X61.695Y-67.415
X61.695Y-89.815
X61.695Y-112.215
X61.695Y-134.615
X61.695Y-157.015
X62.454Y-45.683
X62.454Y-68.083
X62.454Y-90.483
X62.454Y-112.883
X62.454Y-135.283
X62.454Y-157.683
X63.55Y-46.35
X63.55Y-68.75
X63.55Y-91.15
X63.55Y-113.55
X63.55Y-135.95
X63.55Y-158.35
X64.85Y-35.7
X64.85Y-58.1
X64.85Y-80.5
X64.85Y-102.9
X64.85Y-125.3
X64.85Y-147.7
X65.95Y-35.7
X65.95Y-58.1
X65.95Y-80.5
X65.95Y-102.9
X65.95Y-125.3
X65.95Y-147.7
X66.467Y-47.63
X66.467Y-70.03
X66.467Y-92.43
X66.467Y-114.83
X66.467Y-137.23
X66.467Y-159.63
X66.495Y-42.752
X66.495Y-65.152
X66.495Y-87.552
X66.495Y-109.952
X66.495Y-132.352
X66.495Y-154.752
X66.498Y-38.098
X66.498Y-60.498
X66.498Y-82.898
X66.498Y-105.298
X66.498Y-127.698
X66.498Y-150.098
X66.499Y-39.648
X66.499Y-62.048
X66.499Y-84.448
X66.499Y-106.848
X66.499Y-129.248
X66.499Y-151.648
X66.501Y-41.199
X66.501Y-63.599
X66.501Y-85.999
X66.501Y-108.399
X66.501Y-130.799
X66.501Y-153.199
X67.Y-35.7
X67.Y-58.1
X67.Y-80.5
X67.Y-102.9
X67.Y-125.3
X67.Y-147.7
X70.35Y-34.6
X70.35Y-57.
X70.35Y-79.4
X70.35Y-101.8
X70.35Y-124.2
X70.35Y-146.6
X70.45Y-36.25
X70.45Y-58.65
X70.45Y-81.05
X70.45Y-103.45
X70.45Y-125.85
X70.45Y-148.25
X71.66Y-40.63
X71.66Y-63.03
X71.66Y-85.43
X71.66Y-107.83
X71.66Y-130.23
X71.66Y-152.63
X72.8Y-38.222
X72.8Y-60.622
X72.8Y-83.022
X72.8Y-105.422
X72.8Y-127.822
X72.8Y-150.222
X72.8Y-36.25
X72.8Y-58.65
X72.8Y-81.05
X72.8Y-103.45
X72.8Y-125.85
X72.8Y-148.25
X73.Y-46.2
X73.Y-68.6
X73.Y-91.
X73.Y-113.4
X73.Y-135.8
X73.Y-158.2
X84.5Y-46.7
X84.5Y-69.1
X84.5Y-91.5
X84.5Y-113.9
X84.5Y-136.3
X84.5Y-158.7
X85.3Y-45.25
X85.3Y-67.65
X85.3Y-90.05
X85.3Y-112.45
X85.3Y-134.85
X85.3Y-157.25
X85.65Y-34.95
X85.65Y-57.35
X85.65Y-79.75
X85.65Y-102.15
X85.65Y-124.55
X85.65Y-146.95
X88.Y-42.6
X88.Y-65.
X88.Y-87.4
X88.Y-109.8
X88.Y-132.2
X88.Y-154.6
X88.4Y-37.7
X88.4Y-60.1
X88.4Y-82.5
X88.4Y-104.9
X88.4Y-127.3
X88.4Y-149.7
X89.45Y-45.25
X89.45Y-67.65
X89.45Y-90.05
X89.45Y-112.45
X89.45Y-134.85
X89.45Y-157.25
X89.9Y-44.3
X89.9Y-66.7
X89.9Y-89.1
X89.9Y-111.5
X89.9Y-133.9
X89.9Y-156.3
X90.1Y-47.4
X90.1Y-69.8
X90.1Y-92.2
X90.1Y-114.6
X90.1Y-137.
X90.1Y-159.4
X91.1Y-37.05
X91.1Y-59.45
X91.1Y-81.85
X91.1Y-104.25
X91.1Y-126.65
X91.1Y-149.05
X91.615Y-49.265
X91.615Y-71.665
X91.615Y-94.065
X91.615Y-116.465
X91.615Y-138.865
X91.615Y-161.265
X91.615Y-39.703
X91.615Y-62.103
X91.615Y-84.503
X91.615Y-106.903
X91.615Y-129.303
X91.615Y-151.703
X91.705Y-32.249
X91.705Y-54.649
X91.705Y-77.049
X91.705Y-99.449
X91.705Y-121.849
X91.705Y-144.249
X92.302Y-37.03
X92.302Y-59.43
X92.302Y-81.83
X92.302Y-104.23
X92.302Y-126.63
X92.302Y-149.03
X92.863Y-44.401
X92.863Y-66.801
X92.863Y-89.201
X92.863Y-111.601
X92.863Y-134.001
X92.863Y-156.401
X93.143Y-34.819
X93.143Y-57.219
X93.143Y-79.619
X93.143Y-102.019
X93.143Y-124.419
X93.143Y-146.819
X93.55Y-48.4
X93.55Y-70.8
X93.55Y-93.2
X93.55Y-115.6
X93.55Y-138.
X93.55Y-160.4
X94.478Y-39.412
X94.478Y-61.812
X94.478Y-84.212
X94.478Y-106.612
X94.478Y-129.012
X94.478Y-151.412
X94.6Y-43.225
X94.6Y-65.625
X94.6Y-88.025
X94.6Y-110.425
X94.6Y-132.825
X94.6Y-155.225
X95.05Y-48.4
X95.05Y-70.8
X95.05Y-93.2
X95.05Y-115.6
X95.05Y-138.
X95.05Y-160.4
X95.35Y-38.834
X95.35Y-61.234
X95.35Y-83.634
X95.35Y-106.034
X95.35Y-128.434
X95.35Y-150.834
X95.6Y-40.2
X95.6Y-41.7
X95.6Y-62.6
X95.6Y-64.1
X95.6Y-85.
X95.6Y-86.5
X95.6Y-107.4
X95.6Y-108.9
X95.6Y-129.8
X95.6Y-131.3
X95.6Y-152.2
X95.6Y-153.7
X95.65Y-34.85
X95.65Y-57.25
X95.65Y-79.65
X95.65Y-102.05
X95.65Y-124.45
X95.65Y-146.85
X95.884Y-48.378
X95.884Y-70.778
X95.884Y-93.178
X95.884Y-115.578
X95.884Y-137.978
X95.884Y-160.378
X96.269Y-42.64
X96.269Y-65.04
X96.269Y-87.44
X96.269Y-109.84
X96.269Y-132.24
X96.269Y-154.64
X98.562Y-43.413
X98.562Y-65.813
X98.562Y-88.213
X98.562Y-110.613
X98.562Y-133.013
X98.562Y-155.413
X98.9Y-46.25
X98.9Y-68.65
X98.9Y-91.05
X98.9Y-113.45
X98.9Y-135.85
X98.9Y-158.25
X99.1Y-41.95
X99.1Y-64.35
X99.1Y-86.75
X99.1Y-109.15
X99.1Y-131.55
X99.1Y-153.95
X99.339Y-43.413
X99.339Y-65.813
X99.339Y-88.213
X99.339Y-110.613
X99.339Y-133.013
X99.339Y-155.413
X100.207Y-48.984
X100.207Y-71.384
X100.207Y-93.784
X100.207Y-116.184
X100.207Y-138.584
X100.207Y-160.984
X100.35Y-40.7
X100.35Y-63.1
X100.35Y-85.5
X100.35Y-107.9
X100.35Y-130.3
X100.35Y-152.7
X100.45Y-39.65
X100.45Y-62.05
X100.45Y-84.45
X100.45Y-106.85
X100.45Y-129.25
X100.45Y-151.65
X101.795Y-45.015
X101.795Y-67.415
X101.795Y-89.815
X101.795Y-112.215
X101.795Y-134.615
X101.795Y-157.015
X102.554Y-45.683
X102.554Y-68.083
X102.554Y-90.483
X102.554Y-112.883
X102.554Y-135.283
X102.554Y-157.683
X103.65Y-46.35
X103.65Y-68.75
X103.65Y-91.15
X103.65Y-113.55
X103.65Y-135.95
X103.65Y-158.35
X104.95Y-35.7
X104.95Y-58.1
X104.95Y-80.5
X104.95Y-102.9
X104.95Y-125.3
X104.95Y-147.7
X106.05Y-35.7
X106.05Y-58.1
X106.05Y-80.5
X106.05Y-102.9
X106.05Y-125.3
X106.05Y-147.7
X106.567Y-47.63
X106.567Y-70.03
X106.567Y-92.43
X106.567Y-114.83
X106.567Y-137.23
X106.567Y-159.63
X106.595Y-42.752
X106.595Y-65.152
X106.595Y-87.552
X106.595Y-109.952
X106.595Y-132.352
X106.595Y-154.752
X106.598Y-38.098
X106.598Y-60.498
X106.598Y-82.898
X106.598Y-105.298
X106.598Y-127.698
X106.598Y-150.098
X106.599Y-39.648
X106.599Y-62.048
X106.599Y-84.448
X106.599Y-106.848
X106.599Y-129.248
X106.599Y-151.648
X106.601Y-41.199
X106.601Y-63.599
X106.601Y-85.999
X106.601Y-108.399
X106.601Y-130.799
X106.601Y-153.199
X107.1Y-35.7
X107.1Y-58.1
X107.1Y-80.5
X107.1Y-102.9
X107.1Y-125.3
X107.1Y-147.7
X110.45Y-34.6
X110.45Y-57.
X110.45Y-79.4
X110.45Y-101.8
X110.45Y-124.2
X110.45Y-146.6
X110.55Y-36.25
X110.55Y-58.65
X110.55Y-81.05
X110.55Y-103.45
X110.55Y-125.85
X110.55Y-148.25
X111.76Y-40.63
X111.76Y-63.03
X111.76Y-85.43
X111.76Y-107.83
X111.76Y-130.23
X111.76Y-152.63
X112.9Y-38.222
X112.9Y-60.622
X112.9Y-83.022
X112.9Y-105.422
X112.9Y-127.822
X112.9Y-150.222
X112.9Y-36.25
X112.9Y-58.65
X112.9Y-81.05
X112.9Y-103.45
X112.9Y-125.85
X112.9Y-148.25
X113.1Y-46.2
X113.1Y-68.6
X113.1Y-91.
X113.1Y-113.4
X113.1Y-135.8
X113.1Y-158.2
X124.6Y-46.7
X124.6Y-69.1
X124.6Y-91.5
X124.6Y-113.9
X124.6Y-136.3
X124.6Y-158.7
X125.4Y-45.25
X125.4Y-67.65
X125.4Y-90.05
X125.4Y-112.45
X125.4Y-134.85
X125.4Y-157.25
X125.75Y-34.95
X125.75Y-57.35
X125.75Y-79.75
X125.75Y-102.15
X125.75Y-124.55
X125.75Y-146.95
X128.1Y-42.6
X128.1Y-65.
X128.1Y-87.4
X128.1Y-109.8
X128.1Y-132.2
X128.1Y-154.6
X128.5Y-37.7
X128.5Y-60.1
X128.5Y-82.5
X128.5Y-104.9
X128.5Y-127.3
X128.5Y-149.7
X129.55Y-45.25
X129.55Y-67.65
X129.55Y-90.05
X129.55Y-112.45
X129.55Y-134.85
X129.55Y-157.25
X130.Y-44.3
X130.Y-66.7
X130.Y-89.1
X130.Y-111.5
X130.Y-133.9
X130.Y-156.3
X130.2Y-47.4
X130.2Y-69.8
X130.2Y-92.2
X130.2Y-114.6
X130.2Y-137.
X130.2Y-159.4
X131.2Y-37.05
X131.2Y-59.45
X131.2Y-81.85
X131.2Y-104.25
X131.2Y-126.65
X131.2Y-149.05
X131.715Y-49.265
X131.715Y-71.665
X131.715Y-94.065
X131.715Y-116.465
X131.715Y-138.865
X131.715Y-161.265
X131.715Y-39.703
X131.715Y-62.103
X131.715Y-84.503
X131.715Y-106.903
X131.715Y-129.303
X131.715Y-151.703
X131.805Y-32.249
X131.805Y-54.649
X131.805Y-77.049
X131.805Y-99.449
X131.805Y-121.849
X131.805Y-144.249
X132.402Y-37.03
X132.402Y-59.43
X132.402Y-81.83
X132.402Y-104.23
X132.402Y-126.63
X132.402Y-149.03
X132.963Y-44.401
X132.963Y-66.801
X132.963Y-89.201
X132.963Y-111.601
X132.963Y-134.001
X132.963Y-156.401
X133.243Y-34.819
X133.243Y-57.219
X133.243Y-79.619
X133.243Y-102.019
X133.243Y-124.419
X133.243Y-146.819
X133.65Y-48.4
X133.65Y-70.8
X133.65Y-93.2
X133.65Y-115.6
X133.65Y-138.
X133.65Y-160.4
X134.578Y-39.412
X134.578Y-61.812
X134.578Y-84.212
X134.578Y-106.612
X134.578Y-129.012
X134.578Y-151.412
X134.7Y-43.225
X134.7Y-65.625
X134.7Y-88.025
X134.7Y-110.425
X134.7Y-132.825
X134.7Y-155.225
X135.15Y-48.4
X135.15Y-70.8
X135.15Y-93.2
X135.15Y-115.6
X135.15Y-138.
X135.15Y-160.4
X135.45Y-38.834
X135.45Y-61.234
X135.45Y-83.634
X135.45Y-106.034
X135.45Y-128.434
X135.45Y-150.834
X135.7Y-40.2
X135.7Y-41.7
X135.7Y-62.6
X135.7Y-64.1
X135.7Y-85.
X135.7Y-86.5
X135.7Y-107.4
X135.7Y-108.9
X135.7Y-129.8
X135.7Y-131.3
X135.7Y-152.2
X135.7Y-153.7
X135.75Y-34.85
X135.75Y-57.25
X135.75Y-79.65
X135.75Y-102.05
X135.75Y-124.45
X135.75Y-146.85
X135.984Y-48.378
X135.984Y-70.778
X135.984Y-93.178
X135.984Y-115.578
X135.984Y-137.978
X135.984Y-160.378
X136.369Y-42.64
X136.369Y-65.04
X136.369Y-87.44
X136.369Y-109.84
X136.369Y-132.24
X136.369Y-154.64
X138.662Y-43.413
X138.662Y-65.813
X138.662Y-88.213
X138.662Y-110.613
X138.662Y-133.013
X138.662Y-155.413
X139.Y-46.25
X139.Y-68.65
X139.Y-91.05
X139.Y-113.45
X139.Y-135.85
X139.Y-158.25
X139.2Y-41.95
X139.2Y-64.35
X139.2Y-86.75
X139.2Y-109.15
X139.2Y-131.55
X139.2Y-153.95
X139.439Y-43.413
X139.439Y-65.813
X139.439Y-88.213
X139.439Y-110.613
X139.439Y-133.013
X139.439Y-155.413
X140.307Y-48.984
X140.307Y-71.384
X140.307Y-93.784
X140.307Y-116.184
X140.307Y-138.584
X140.307Y-160.984
X140.45Y-40.7
X140.45Y-63.1
X140.45Y-85.5
X140.45Y-107.9
X140.45Y-130.3
X140.45Y-152.7
X140.55Y-39.65
X140.55Y-62.05
X140.55Y-84.45
X140.55Y-106.85
X140.55Y-129.25
X140.55Y-151.65
X141.895Y-45.015
X141.895Y-67.415
X141.895Y-89.815
X141.895Y-112.215
X141.895Y-134.615
X141.895Y-157.015
X142.654Y-45.683
X142.654Y-68.083
X142.654Y-90.483
X142.654Y-112.883
X142.654Y-135.283
X142.654Y-157.683
X143.75Y-46.35
X143.75Y-68.75
X143.75Y-91.15
X143.75Y-113.55
X143.75Y-135.95
X143.75Y-158.35
X145.05Y-35.7
X145.05Y-58.1
X145.05Y-80.5
X145.05Y-102.9
X145.05Y-125.3
X145.05Y-147.7
X146.15Y-35.7
X146.15Y-58.1
X146.15Y-80.5
X146.15Y-102.9
X146.15Y-125.3
X146.15Y-147.7
X146.667Y-47.63
X146.667Y-70.03
X146.667Y-92.43
X146.667Y-114.83
X146.667Y-137.23
X146.667Y-159.63
X146.695Y-42.752
X146.695Y-65.152
X146.695Y-87.552
X146.695Y-109.952
X146.695Y-132.352
X146.695Y-154.752
X146.698Y-38.098
X146.698Y-60.498
X146.698Y-82.898
X146.698Y-105.298
X146.698Y-127.698
X146.698Y-150.098
X146.699Y-39.648
X146.699Y-62.048
X146.699Y-84.448
X146.699Y-106.848
X146.699Y-129.248
X146.699Y-151.648
X146.701Y-41.199
X146.701Y-63.599
X146.701Y-85.999
X146.701Y-108.399
X146.701Y-130.799
X146.701Y-153.199
X147.2Y-35.7
X147.2Y-58.1
X147.2Y-80.5
X147.2Y-102.9
X147.2Y-125.3
X147.2Y-147.7
X150.55Y-34.6
X150.55Y-57.
X150.55Y-79.4
X150.55Y-101.8
X150.55Y-124.2
X150.55Y-146.6
X150.65Y-36.25
X150.65Y-58.65
X150.65Y-81.05
X150.65Y-103.45
X150.65Y-125.85
X150.65Y-148.25
X151.86Y-40.63
X151.86Y-63.03
X151.86Y-85.43
X151.86Y-107.83
X151.86Y-130.23
X151.86Y-152.63
X153.Y-38.222
X153.Y-60.622
X153.Y-83.022
X153.Y-105.422
X153.Y-127.822
X153.Y-150.222
X153.Y-36.25
X153.Y-58.65
X153.Y-81.05
X153.Y-103.45
X153.Y-125.85
X153.Y-148.25
X153.2Y-46.2
X153.2Y-68.6
X153.2Y-91.
X153.2Y-113.4
X153.2Y-135.8
X153.2Y-158.2
X164.7Y-46.7
X164.7Y-69.1
X164.7Y-91.5
X164.7Y-113.9
X164.7Y-136.3
X164.7Y-158.7
X165.5Y-45.25
X165.5Y-67.65
X165.5Y-90.05
X165.5Y-112.45
X165.5Y-134.85
X165.5Y-157.25
X165.85Y-34.95
X165.85Y-57.35
X165.85Y-79.75
X165.85Y-102.15
X165.85Y-124.55
X165.85Y-146.95
X168.2Y-42.6
X168.2Y-65.
X168.2Y-87.4
X168.2Y-109.8
X168.2Y-132.2
X168.2Y-154.6
X168.6Y-37.7
X168.6Y-60.1
X168.6Y-82.5
X168.6Y-104.9
X168.6Y-127.3
X168.6Y-149.7
X169.65Y-45.25
X169.65Y-67.65
X169.65Y-90.05
X169.65Y-112.45
X169.65Y-134.85
X169.65Y-157.25
X170.1Y-44.3
X170.1Y-66.7
X170.1Y-89.1
X170.1Y-111.5
X170.1Y-133.9
X170.1Y-156.3
X170.3Y-47.4
X170.3Y-69.8
X170.3Y-92.2
X170.3Y-114.6
X170.3Y-137.
X170.3Y-159.4
X171.3Y-37.05
X171.3Y-59.45
X171.3Y-81.85
X171.3Y-104.25
X171.3Y-126.65
X171.3Y-149.05
X171.815Y-49.265
X171.815Y-71.665
X171.815Y-94.065
X171.815Y-116.465
X171.815Y-138.865
X171.815Y-161.265
X171.815Y-39.703
X171.815Y-62.103
X171.815Y-84.503
X171.815Y-106.903
X171.815Y-129.303
X171.815Y-151.703
X171.905Y-32.249
X171.905Y-54.649
X171.905Y-77.049
X171.905Y-99.449
X171.905Y-121.849
X171.905Y-144.249
X172.502Y-37.03
X172.502Y-59.43
X172.502Y-81.83
X172.502Y-104.23
X172.502Y-126.63
X172.502Y-149.03
X173.063Y-44.401
X173.063Y-66.801
X173.063Y-89.201
X173.063Y-111.601
X173.063Y-134.001
X173.063Y-156.401
X173.343Y-34.819
X173.343Y-57.219
X173.343Y-79.619
X173.343Y-102.019
X173.343Y-124.419
X173.343Y-146.819
X173.75Y-48.4
X173.75Y-70.8
X173.75Y-93.2
X173.75Y-115.6
X173.75Y-138.
X173.75Y-160.4
X174.678Y-39.412
X174.678Y-61.812
X174.678Y-84.212
X174.678Y-106.612
X174.678Y-129.012
X174.678Y-151.412
X174.8Y-43.225
X174.8Y-65.625
X174.8Y-88.025
X174.8Y-110.425
X174.8Y-132.825
X174.8Y-155.225
X175.25Y-48.4
X175.25Y-70.8
X175.25Y-93.2
X175.25Y-115.6
X175.25Y-138.
X175.25Y-160.4
X175.55Y-38.834
X175.55Y-61.234
X175.55Y-83.634
X175.55Y-106.034
X175.55Y-128.434
X175.55Y-150.834
X175.8Y-40.2
X175.8Y-41.7
X175.8Y-62.6
X175.8Y-64.1
X175.8Y-85.
X175.8Y-86.5
X175.8Y-107.4
X175.8Y-108.9
X175.8Y-129.8
X175.8Y-131.3
X175.8Y-152.2
X175.8Y-153.7
X175.85Y-34.85
X175.85Y-57.25
X175.85Y-79.65
X175.85Y-102.05
X175.85Y-124.45
X175.85Y-146.85
X176.084Y-48.378
X176.084Y-70.778
X176.084Y-93.178
X176.084Y-115.578
X176.084Y-137.978
X176.084Y-160.378
X176.469Y-42.64
X176.469Y-65.04
X176.469Y-87.44
X176.469Y-109.84
X176.469Y-132.24
X176.469Y-154.64
X178.762Y-43.413
X178.762Y-65.813
X178.762Y-88.213
X178.762Y-110.613
X178.762Y-133.013
X178.762Y-155.413
X179.1Y-46.25
X179.1Y-68.65
X179.1Y-91.05
X179.1Y-113.45
X179.1Y-135.85
X179.1Y-158.25
X179.3Y-41.95
X179.3Y-64.35
X179.3Y-86.75
X179.3Y-109.15
X179.3Y-131.55
X179.3Y-153.95
X179.539Y-43.413
X179.539Y-65.813
X179.539Y-88.213
X179.539Y-110.613
X179.539Y-133.013
X179.539Y-155.413
X180.407Y-48.984
X180.407Y-71.384
X180.407Y-93.784
X180.407Y-116.184
X180.407Y-138.584
X180.407Y-160.984
X180.55Y-40.7
X180.55Y-63.1
X180.55Y-85.5
X180.55Y-107.9
X180.55Y-130.3
X180.55Y-152.7
X180.65Y-39.65
X180.65Y-62.05
X180.65Y-84.45
X180.65Y-106.85
X180.65Y-129.25
X180.65Y-151.65
X181.995Y-45.015
X181.995Y-67.415
X181.995Y-89.815
X181.995Y-112.215
X181.995Y-134.615
X181.995Y-157.015
X182.754Y-45.683
X182.754Y-68.083
X182.754Y-90.483
X182.754Y-112.883
X182.754Y-135.283
X182.754Y-157.683
X183.85Y-46.35
X183.85Y-68.75
X183.85Y-91.15
X183.85Y-113.55
X183.85Y-135.95
X183.85Y-158.35
X185.15Y-35.7
X185.15Y-58.1
X185.15Y-80.5
X185.15Y-102.9
X185.15Y-125.3
X185.15Y-147.7
X186.25Y-35.7
X186.25Y-58.1
X186.25Y-80.5
X186.25Y-102.9
X186.25Y-125.3
X186.25Y-147.7
X186.767Y-47.63
X186.767Y-70.03
X186.767Y-92.43
X186.767Y-114.83
X186.767Y-137.23
X186.767Y-159.63
X186.795Y-42.752
X186.795Y-65.152
X186.795Y-87.552
X186.795Y-109.952
X186.795Y-132.352
X186.795Y-154.752
X186.798Y-38.098
X186.798Y-60.498
X186.798Y-82.898
X186.798Y-105.298
X186.798Y-127.698
X186.798Y-150.098
X186.799Y-39.648
X186.799Y-62.048
X186.799Y-84.448
X186.799Y-106.848
X186.799Y-129.248
X186.799Y-151.648
X186.801Y-41.199
X186.801Y-63.599
X186.801Y-85.999
X186.801Y-108.399
X186.801Y-130.799
X186.801Y-153.199
X187.3Y-35.7
X187.3Y-58.1
X187.3Y-80.5
X187.3Y-102.9
X187.3Y-125.3
X187.3Y-147.7
X190.65Y-34.6
X190.65Y-57.
X190.65Y-79.4
X190.65Y-101.8
X190.65Y-124.2
X190.65Y-146.6
X190.75Y-36.25
X190.75Y-58.65
X190.75Y-81.05
X190.75Y-103.45
X190.75Y-125.85
X190.75Y-148.25
X191.96Y-40.63
X191.96Y-63.03
X191.96Y-85.43
X191.96Y-107.83
X191.96Y-130.23
X191.96Y-152.63
X193.1Y-38.222
X193.1Y-60.622
X193.1Y-83.022
X193.1Y-105.422
X193.1Y-127.822
X193.1Y-150.222
X193.1Y-36.25
X193.1Y-58.65
X193.1Y-81.05
X193.1Y-103.45
X193.1Y-125.85
X193.1Y-148.25
X193.3Y-46.2
X193.3Y-68.6
X193.3Y-91.
X193.3Y-113.4
X193.3Y-135.8
X193.3Y-158.2
T0
M30
