G04 #@! TF.FileFunction,Profile,NP*
%FSLAX46Y46*%
G04 Gerber Fmt 4.6, Leading zero omitted, Abs format (unit mm)*
G04 Created by KiCad (PCBNEW 4.0.2+dfsg1-stable) date Fr 29 Apr 2016 12:30:28 CEST*
%MOMM*%
G01*
G04 APERTURE LIST*
%ADD10C,0.100000*%
%ADD11C,0.150000*%
G04 APERTURE END LIST*
D10*
D11*
X167300000Y-149100000D02*
G75*
G03X166500000Y-148300000I-800000J0D01*
G01*
X161700000Y-148300000D02*
X166500000Y-148300000D01*
X166500000Y-156100000D02*
G75*
G03X167300000Y-155300000I0J800000D01*
G01*
X161700000Y-156100000D02*
X166500000Y-156100000D01*
X167300000Y-149100000D02*
X167300000Y-155300000D01*
X161700000Y-162200000D02*
X161700000Y-156100000D01*
X161700000Y-142200000D02*
X161700000Y-148300000D01*
X199400000Y-162200000D02*
X161700000Y-162200000D01*
X199400000Y-142200000D02*
X199400000Y-162200000D01*
X161700000Y-142200000D02*
X199400000Y-142200000D01*
X199400000Y-139800000D02*
X161700000Y-139800000D01*
X161700000Y-119800000D02*
X161700000Y-125900000D01*
X166500000Y-133700000D02*
G75*
G03X167300000Y-132900000I0J800000D01*
G01*
X167300000Y-126700000D02*
G75*
G03X166500000Y-125900000I-800000J0D01*
G01*
X161700000Y-125900000D02*
X166500000Y-125900000D01*
X161700000Y-119800000D02*
X199400000Y-119800000D01*
X161700000Y-103500000D02*
X166500000Y-103500000D01*
X167300000Y-104300000D02*
G75*
G03X166500000Y-103500000I-800000J0D01*
G01*
X199400000Y-117400000D02*
X161700000Y-117400000D01*
X199400000Y-97400000D02*
X199400000Y-117400000D01*
X161700000Y-97400000D02*
X161700000Y-103500000D01*
X161700000Y-97400000D02*
X199400000Y-97400000D01*
X199400000Y-119800000D02*
X199400000Y-139800000D01*
X161700000Y-133700000D02*
X166500000Y-133700000D01*
X161700000Y-139800000D02*
X161700000Y-133700000D01*
X167300000Y-126700000D02*
X167300000Y-132900000D01*
X167300000Y-104300000D02*
X167300000Y-110500000D01*
X161700000Y-111300000D02*
X166500000Y-111300000D01*
X161700000Y-117400000D02*
X161700000Y-111300000D01*
X166500000Y-111300000D02*
G75*
G03X167300000Y-110500000I0J800000D01*
G01*
X47000000Y-149100000D02*
G75*
G03X46200000Y-148300000I-800000J0D01*
G01*
X46200000Y-156100000D02*
G75*
G03X47000000Y-155300000I0J800000D01*
G01*
X41400000Y-148300000D02*
X46200000Y-148300000D01*
X41400000Y-142200000D02*
X41400000Y-148300000D01*
X41400000Y-156100000D02*
X46200000Y-156100000D01*
X79100000Y-142200000D02*
X79100000Y-162200000D01*
X47000000Y-149100000D02*
X47000000Y-155300000D01*
X41400000Y-142200000D02*
X79100000Y-142200000D01*
X79100000Y-162200000D02*
X41400000Y-162200000D01*
X41400000Y-162200000D02*
X41400000Y-156100000D01*
X41400000Y-133700000D02*
X46200000Y-133700000D01*
X46200000Y-133700000D02*
G75*
G03X47000000Y-132900000I0J800000D01*
G01*
X41400000Y-139800000D02*
X41400000Y-133700000D01*
X47000000Y-126700000D02*
G75*
G03X46200000Y-125900000I-800000J0D01*
G01*
X79100000Y-119800000D02*
X79100000Y-139800000D01*
X79100000Y-139800000D02*
X41400000Y-139800000D01*
X41400000Y-119800000D02*
X79100000Y-119800000D01*
X47000000Y-126700000D02*
X47000000Y-132900000D01*
X47000000Y-104300000D02*
X47000000Y-110500000D01*
X41400000Y-97400000D02*
X41400000Y-103500000D01*
X47000000Y-104300000D02*
G75*
G03X46200000Y-103500000I-800000J0D01*
G01*
X79100000Y-97400000D02*
X79100000Y-117400000D01*
X41400000Y-103500000D02*
X46200000Y-103500000D01*
X79100000Y-117400000D02*
X41400000Y-117400000D01*
X41400000Y-97400000D02*
X79100000Y-97400000D01*
X41400000Y-125900000D02*
X46200000Y-125900000D01*
X41400000Y-119800000D02*
X41400000Y-125900000D01*
X41400000Y-117400000D02*
X41400000Y-111300000D01*
X46200000Y-111300000D02*
G75*
G03X47000000Y-110500000I0J800000D01*
G01*
X41400000Y-111300000D02*
X46200000Y-111300000D01*
X121600000Y-156100000D02*
X126400000Y-156100000D01*
X127200000Y-149100000D02*
G75*
G03X126400000Y-148300000I-800000J0D01*
G01*
X121600000Y-148300000D02*
X126400000Y-148300000D01*
X126400000Y-156100000D02*
G75*
G03X127200000Y-155300000I0J800000D01*
G01*
X121600000Y-162200000D02*
X121600000Y-156100000D01*
X121600000Y-142200000D02*
X121600000Y-148300000D01*
X127200000Y-149100000D02*
X127200000Y-155300000D01*
X159300000Y-162200000D02*
X121600000Y-162200000D01*
X121600000Y-119800000D02*
X121600000Y-125900000D01*
X121600000Y-125900000D02*
X126400000Y-125900000D01*
X127200000Y-126700000D02*
X127200000Y-132900000D01*
X121600000Y-119800000D02*
X159300000Y-119800000D01*
X159300000Y-142200000D02*
X159300000Y-162200000D01*
X121600000Y-142200000D02*
X159300000Y-142200000D01*
X159300000Y-119800000D02*
X159300000Y-139800000D01*
X159300000Y-139800000D02*
X121600000Y-139800000D01*
X121600000Y-97400000D02*
X121600000Y-103500000D01*
X121600000Y-103500000D02*
X126400000Y-103500000D01*
X127200000Y-104300000D02*
G75*
G03X126400000Y-103500000I-800000J0D01*
G01*
X121600000Y-97400000D02*
X159300000Y-97400000D01*
X127200000Y-104300000D02*
X127200000Y-110500000D01*
X127200000Y-126700000D02*
G75*
G03X126400000Y-125900000I-800000J0D01*
G01*
X121600000Y-139800000D02*
X121600000Y-133700000D01*
X121600000Y-133700000D02*
X126400000Y-133700000D01*
X126400000Y-133700000D02*
G75*
G03X127200000Y-132900000I0J800000D01*
G01*
X159300000Y-97400000D02*
X159300000Y-117400000D01*
X159300000Y-117400000D02*
X121600000Y-117400000D01*
X121600000Y-111300000D02*
X126400000Y-111300000D01*
X126400000Y-111300000D02*
G75*
G03X127200000Y-110500000I0J800000D01*
G01*
X121600000Y-117400000D02*
X121600000Y-111300000D01*
X81500000Y-103500000D02*
X86300000Y-103500000D01*
X86300000Y-111300000D02*
G75*
G03X87100000Y-110500000I0J800000D01*
G01*
X87100000Y-104300000D02*
G75*
G03X86300000Y-103500000I-800000J0D01*
G01*
X87100000Y-104300000D02*
X87100000Y-110500000D01*
X81500000Y-97400000D02*
X81500000Y-103500000D01*
X81500000Y-139800000D02*
X81500000Y-133700000D01*
X81500000Y-133700000D02*
X86300000Y-133700000D01*
X86300000Y-133700000D02*
G75*
G03X87100000Y-132900000I0J800000D01*
G01*
X87100000Y-126700000D02*
X87100000Y-132900000D01*
X87100000Y-126700000D02*
G75*
G03X86300000Y-125900000I-800000J0D01*
G01*
X81500000Y-142200000D02*
X81500000Y-148300000D01*
X81500000Y-142200000D02*
X119200000Y-142200000D01*
X119200000Y-139800000D02*
X81500000Y-139800000D01*
X119200000Y-162200000D02*
X81500000Y-162200000D01*
X81500000Y-162200000D02*
X81500000Y-156100000D01*
X119200000Y-142200000D02*
X119200000Y-162200000D01*
X87100000Y-149100000D02*
X87100000Y-155300000D01*
X119200000Y-119800000D02*
X119200000Y-139800000D01*
X81500000Y-119800000D02*
X119200000Y-119800000D01*
X119200000Y-117400000D02*
X81500000Y-117400000D01*
X81500000Y-97400000D02*
X119200000Y-97400000D01*
X119200000Y-97400000D02*
X119200000Y-117400000D01*
X81500000Y-125900000D02*
X86300000Y-125900000D01*
X81500000Y-117400000D02*
X81500000Y-111300000D01*
X81500000Y-119800000D02*
X81500000Y-125900000D01*
X81500000Y-111300000D02*
X86300000Y-111300000D01*
X86300000Y-156100000D02*
G75*
G03X87100000Y-155300000I0J800000D01*
G01*
X81500000Y-156100000D02*
X86300000Y-156100000D01*
X81500000Y-148300000D02*
X86300000Y-148300000D01*
X87100000Y-149100000D02*
G75*
G03X86300000Y-148300000I-800000J0D01*
G01*
X167300000Y-81900000D02*
G75*
G03X166500000Y-81100000I-800000J0D01*
G01*
X161700000Y-81100000D02*
X166500000Y-81100000D01*
X161700000Y-75000000D02*
X161700000Y-81100000D01*
X166500000Y-88900000D02*
G75*
G03X167300000Y-88100000I0J800000D01*
G01*
X126400000Y-88900000D02*
G75*
G03X127200000Y-88100000I0J800000D01*
G01*
X121600000Y-88900000D02*
X126400000Y-88900000D01*
X127200000Y-81900000D02*
G75*
G03X126400000Y-81100000I-800000J0D01*
G01*
X121600000Y-81100000D02*
X126400000Y-81100000D01*
X121600000Y-95000000D02*
X121600000Y-88900000D01*
X121600000Y-75000000D02*
X121600000Y-81100000D01*
X161700000Y-88900000D02*
X166500000Y-88900000D01*
X161700000Y-75000000D02*
X199400000Y-75000000D01*
X199400000Y-95000000D02*
X161700000Y-95000000D01*
X199400000Y-75000000D02*
X199400000Y-95000000D01*
X161700000Y-95000000D02*
X161700000Y-88900000D01*
X167300000Y-81900000D02*
X167300000Y-88100000D01*
X119200000Y-75000000D02*
X119200000Y-95000000D01*
X119200000Y-95000000D02*
X81500000Y-95000000D01*
X87100000Y-81900000D02*
X87100000Y-88100000D01*
X87100000Y-81900000D02*
G75*
G03X86300000Y-81100000I-800000J0D01*
G01*
X86300000Y-88900000D02*
G75*
G03X87100000Y-88100000I0J800000D01*
G01*
X81500000Y-75000000D02*
X119200000Y-75000000D01*
X127200000Y-81900000D02*
X127200000Y-88100000D01*
X159300000Y-75000000D02*
X159300000Y-95000000D01*
X121600000Y-75000000D02*
X159300000Y-75000000D01*
X159300000Y-95000000D02*
X121600000Y-95000000D01*
X81500000Y-88900000D02*
X86300000Y-88900000D01*
X81500000Y-75000000D02*
X81500000Y-81100000D01*
X81500000Y-81100000D02*
X86300000Y-81100000D01*
X81500000Y-95000000D02*
X81500000Y-88900000D01*
X79100000Y-75000000D02*
X79100000Y-95000000D01*
X41400000Y-88900000D02*
X46200000Y-88900000D01*
X46200000Y-88900000D02*
G75*
G03X47000000Y-88100000I0J800000D01*
G01*
X47000000Y-81900000D02*
G75*
G03X46200000Y-81100000I-800000J0D01*
G01*
X41400000Y-81100000D02*
X46200000Y-81100000D01*
X47000000Y-81900000D02*
X47000000Y-88100000D01*
X41400000Y-75000000D02*
X41400000Y-81100000D01*
X41400000Y-75000000D02*
X79100000Y-75000000D01*
X79100000Y-95000000D02*
X41400000Y-95000000D01*
X41400000Y-95000000D02*
X41400000Y-88900000D01*
X167300000Y-59500000D02*
G75*
G03X166500000Y-58700000I-800000J0D01*
G01*
X161700000Y-58700000D02*
X166500000Y-58700000D01*
X161700000Y-52600000D02*
X161700000Y-58700000D01*
X166500000Y-66500000D02*
G75*
G03X167300000Y-65700000I0J800000D01*
G01*
X126400000Y-66500000D02*
G75*
G03X127200000Y-65700000I0J800000D01*
G01*
X121600000Y-66500000D02*
X126400000Y-66500000D01*
X127200000Y-59500000D02*
G75*
G03X126400000Y-58700000I-800000J0D01*
G01*
X121600000Y-58700000D02*
X126400000Y-58700000D01*
X121600000Y-72600000D02*
X121600000Y-66500000D01*
X121600000Y-52600000D02*
X121600000Y-58700000D01*
X161700000Y-66500000D02*
X166500000Y-66500000D01*
X161700000Y-52600000D02*
X199400000Y-52600000D01*
X199400000Y-72600000D02*
X161700000Y-72600000D01*
X199400000Y-52600000D02*
X199400000Y-72600000D01*
X161700000Y-72600000D02*
X161700000Y-66500000D01*
X167300000Y-59500000D02*
X167300000Y-65700000D01*
X119200000Y-52600000D02*
X119200000Y-72600000D01*
X119200000Y-72600000D02*
X81500000Y-72600000D01*
X87100000Y-59500000D02*
X87100000Y-65700000D01*
X87100000Y-59500000D02*
G75*
G03X86300000Y-58700000I-800000J0D01*
G01*
X86300000Y-66500000D02*
G75*
G03X87100000Y-65700000I0J800000D01*
G01*
X81500000Y-52600000D02*
X119200000Y-52600000D01*
X127200000Y-59500000D02*
X127200000Y-65700000D01*
X159300000Y-52600000D02*
X159300000Y-72600000D01*
X121600000Y-52600000D02*
X159300000Y-52600000D01*
X159300000Y-72600000D02*
X121600000Y-72600000D01*
X81500000Y-66500000D02*
X86300000Y-66500000D01*
X81500000Y-52600000D02*
X81500000Y-58700000D01*
X81500000Y-58700000D02*
X86300000Y-58700000D01*
X81500000Y-72600000D02*
X81500000Y-66500000D01*
X79100000Y-52600000D02*
X79100000Y-72600000D01*
X41400000Y-66500000D02*
X46200000Y-66500000D01*
X46200000Y-66500000D02*
G75*
G03X47000000Y-65700000I0J800000D01*
G01*
X47000000Y-59500000D02*
G75*
G03X46200000Y-58700000I-800000J0D01*
G01*
X41400000Y-58700000D02*
X46200000Y-58700000D01*
X47000000Y-59500000D02*
X47000000Y-65700000D01*
X41400000Y-52600000D02*
X41400000Y-58700000D01*
X41400000Y-52600000D02*
X79100000Y-52600000D01*
X79100000Y-72600000D02*
X41400000Y-72600000D01*
X41400000Y-72600000D02*
X41400000Y-66500000D01*
X161700000Y-36300000D02*
X166500000Y-36300000D01*
X161700000Y-44100000D02*
X166500000Y-44100000D01*
X166500000Y-44100000D02*
G75*
G03X167300000Y-43300000I0J800000D01*
G01*
X167300000Y-37100000D02*
G75*
G03X166500000Y-36300000I-800000J0D01*
G01*
X161700000Y-50200000D02*
X161700000Y-44100000D01*
X161700000Y-30200000D02*
X161700000Y-36300000D01*
X161700000Y-30200000D02*
X199400000Y-30200000D01*
X199400000Y-50200000D02*
X161700000Y-50200000D01*
X199400000Y-30200000D02*
X199400000Y-50200000D01*
X167300000Y-37100000D02*
X167300000Y-43300000D01*
X121600000Y-36300000D02*
X126400000Y-36300000D01*
X121600000Y-44100000D02*
X126400000Y-44100000D01*
X126400000Y-44100000D02*
G75*
G03X127200000Y-43300000I0J800000D01*
G01*
X127200000Y-37100000D02*
G75*
G03X126400000Y-36300000I-800000J0D01*
G01*
X121600000Y-50200000D02*
X121600000Y-44100000D01*
X121600000Y-30200000D02*
X121600000Y-36300000D01*
X121600000Y-30200000D02*
X159300000Y-30200000D01*
X159300000Y-50200000D02*
X121600000Y-50200000D01*
X159300000Y-30200000D02*
X159300000Y-50200000D01*
X127200000Y-37100000D02*
X127200000Y-43300000D01*
X81500000Y-36300000D02*
X86300000Y-36300000D01*
X81500000Y-44100000D02*
X86300000Y-44100000D01*
X86300000Y-44100000D02*
G75*
G03X87100000Y-43300000I0J800000D01*
G01*
X87100000Y-37100000D02*
G75*
G03X86300000Y-36300000I-800000J0D01*
G01*
X81500000Y-50200000D02*
X81500000Y-44100000D01*
X81500000Y-30200000D02*
X81500000Y-36300000D01*
X81500000Y-30200000D02*
X119200000Y-30200000D01*
X119200000Y-50200000D02*
X81500000Y-50200000D01*
X119200000Y-30200000D02*
X119200000Y-50200000D01*
X87100000Y-37100000D02*
X87100000Y-43300000D01*
X41400000Y-30200000D02*
X41400000Y-36300000D01*
X79100000Y-30200000D02*
X79100000Y-50200000D01*
X47000000Y-37100000D02*
X47000000Y-43300000D01*
X41400000Y-36300000D02*
X46200000Y-36300000D01*
X47000000Y-37100000D02*
G75*
G03X46200000Y-36300000I-800000J0D01*
G01*
X46200000Y-44100000D02*
G75*
G03X47000000Y-43300000I0J800000D01*
G01*
X41400000Y-44100000D02*
X46200000Y-44100000D01*
X41400000Y-50200000D02*
X41400000Y-44100000D01*
X79100000Y-50200000D02*
X41400000Y-50200000D01*
X41400000Y-30200000D02*
X79100000Y-30200000D01*
M02*
